<svg width="46" height="46" viewBox="0 0 46 46" fill="none" xmlns="http://www.w3.org/2000/svg">
<rect width="46" height="46" rx="23" fill="#221E3A" fill-opacity="0.2"/>
<path d="M23 35C28.5901 35 33.2874 31.1776 34.6209 26.0039M23 35C17.4099 35 12.7126 31.1776 11.3791 26.0039M23 35C26.3137 35 29 29.6274 29 23C29 16.3726 26.3137 11 23 11M23 35C19.6863 35 17 29.6274 17 23C17 16.3726 19.6863 11 23 11M23 11C27.4869 11 31.3987 13.4626 33.4574 17.1099M23 11C18.5131 11 14.6013 13.4626 12.5426 17.1099M33.4574 17.1099C30.653 19.5339 26.9977 21 23 21C19.0023 21 15.347 19.5339 12.5426 17.1099M33.4574 17.1099C34.4396 18.8499 35 20.8595 35 23C35 24.0373 34.8684 25.0439 34.6209 26.0039M34.6209 26.0039C31.1778 27.913 27.2159 29 23 29C18.7841 29 14.8222 27.913 11.3791 26.0039M11.3791 26.0039C11.1316 25.0439 11 24.0373 11 23C11 20.8595 11.5604 18.8499 12.5426 17.1099" stroke="#221E3A" stroke-width="1.8" stroke-linecap="round" stroke-linejoin="round"/>
</svg>
