<svg width="463" height="98" viewBox="0 0 463 98" fill="none" xmlns="http://www.w3.org/2000/svg">
<path fill-rule="evenodd" clip-rule="evenodd" d="M33.2884 1.64591C31.5657 3.1388 31.1776 3.2495 28.6583 2.96536C24.451 2.48988 23.7655 3.07554 23.9546 6.97959C24.0911 9.79877 23.9756 10.2542 23.0766 10.4287C22.5072 10.5394 21.2693 10.0861 20.3267 9.42133C18.4459 8.09556 16.3163 8.01069 13.9688 9.1683C11.4379 10.4161 10.4206 11.8541 10.8253 13.6111C11.0415 14.5499 10.9071 15.6111 10.4925 16.2442C9.91419 17.1272 9.96837 17.6079 10.8159 19.1087C12.1787 21.5209 11.6795 23.6622 9.83347 23.3259C9.08656 23.1899 8.15555 23.445 7.653 23.9247C7.17091 24.3844 6.41847 24.7608 5.98171 24.7608C4.60897 24.7608 2.37377 26.8177 2.00446 28.4208C1.80985 29.2668 1.29293 30.2421 0.856725 30.5873C-1.90093 32.7697 2.47217 39.4798 7.24499 40.3896C8.15997 40.5641 8.90854 41.0391 8.90854 41.445C8.90854 42.532 11.6275 43.3432 14.1817 43.0185C15.4096 42.8625 17.5862 42.1097 19.0192 41.3464L21.6243 39.9579V41.3211C21.6243 43.0027 23.2298 44.5899 26.2412 45.8851C27.5028 46.4281 29.2813 47.3511 30.1935 47.9373C31.1058 48.523 32.536 49.0043 33.3725 49.0059C34.7789 49.0095 35.2107 49.5314 34.9 50.8546C34.2902 53.4545 35.5275 55.3111 37.9009 55.3575C38.5937 55.3712 39.5496 56.1408 40.3424 57.3242C41.5514 59.1281 41.599 59.4676 41.0014 62.0148C40.4988 64.1566 40.5099 65.2599 41.0533 67.0327C41.8124 69.5087 42.3531 70.0749 43.9708 70.0875C45.3523 70.0981 50.7565 75.6416 51.63 77.9447C52.2321 79.5319 52.1923 79.7976 51.2734 80.3168C47.0341 82.7148 44.2461 85.4175 43.487 87.8645C43.1724 88.8782 43.5589 89.2372 46.4702 90.6384C48.8879 91.8023 50.223 92.8671 51.29 94.4823C54.8615 99.8898 55.9523 99.477 62.2526 90.3331C65.5831 85.4997 67.188 82.6162 67.7176 80.5161C68.1284 78.8851 71.1575 75.3669 72.151 75.3669C72.5115 75.3669 73.7919 74.8624 74.9966 74.2457C76.2007 73.6289 78.6509 72.9394 80.4411 72.7133C84.8435 72.1571 86.2914 70.9916 88.0186 66.6131C88.8075 64.6142 90.1133 61.8166 90.9211 60.3965C92.1462 58.2425 92.39 57.1461 92.39 53.7876C92.39 49.95 92.5006 49.5968 94.7396 46.2668C96.0322 44.3448 98.6445 40.941 100.545 38.7028C103.692 34.9969 104 34.4113 104 32.1472C104 28.5531 102.229 26.2247 99.1089 25.7165C97.6808 25.484 95.9731 24.6944 94.8303 23.7371C91.8233 21.2199 89.911 20.5215 84.7622 20.0586C81.0022 19.7207 79.6804 19.7861 78.7129 20.357C76.7563 21.512 76.6275 21.4477 76.811 19.4124C76.9481 17.8957 76.7182 17.3122 75.7186 16.6448C75.0225 16.1799 73.877 15.7993 73.1743 15.7993C72.4711 15.7993 70.0385 15.0376 67.7685 14.1071C64.2894 12.6807 63.6414 12.2184 63.6414 11.1614C63.6414 9.91685 60.1507 3.43347 59.1688 2.85466C58.1726 2.26742 56.5212 3.21629 55.4072 5.01597C54.3252 6.76504 54.1505 6.83779 51.0302 6.83779C48.5595 6.83779 47.556 7.07395 46.8462 7.82144C46.1098 8.5974 45.1865 8.79139 42.4758 8.74026L39.0393 8.67489L39.2156 5.92266C39.4235 2.68439 38.0872 -0.0240872 36.2938 0.000161571C35.6751 0.00859592 34.3228 0.749237 33.2884 1.64591ZM36.83 5.94269C36.6316 7.15987 36.0748 9.17726 35.5939 10.4261C34.7894 12.5131 34.7928 12.8457 35.6342 14.5278C36.1379 15.5352 36.9235 16.4956 37.3801 16.6628C39.4218 17.4097 36.8704 20.0165 34.0967 20.0165C32.8495 20.0165 32.7428 19.8562 33.0408 18.435C33.3183 17.1124 33.1967 16.8536 32.2999 16.8536C31.6371 16.8536 30.8951 17.5078 30.3572 18.5668C28.7467 21.7381 23.0556 28.0022 19.4233 30.6005C16.0769 32.9948 15.7844 33.1061 15.3294 32.1524C14.5665 30.5536 15.8723 28.2763 18.6057 26.4397C19.9513 25.5352 21.7188 23.6622 22.5365 22.2748C23.6544 20.377 24.7048 19.4271 26.7808 18.4371C30.0808 16.8636 31.5447 14.3359 31.5635 10.1799C31.574 7.79614 31.8582 7.11876 33.8607 4.70337C35.8073 2.35493 36.2225 2.07923 36.6686 2.83885C36.9561 3.3291 37.0291 4.72604 36.83 5.94269ZM28.7639 5.25635C29.5987 5.25635 29.7021 5.67332 29.5157 8.28744C29.2172 12.4793 27.9876 15.5078 26.2832 16.2479C23.6472 17.3934 22.73 16.7898 22.73 13.911C22.73 12.988 23.0346 12.6364 23.8357 12.6364C24.4438 12.6364 25.4622 12.1398 26.0991 11.5326C27.2457 10.4393 27.2789 8.95323 26.2301 5.57211C25.9885 4.79246 26.1284 4.64591 26.8576 4.91317C27.374 5.10189 28.2315 5.25635 28.7639 5.25635ZM60.7511 11.3723C60.295 12.327 59.9555 12.4851 59.1964 12.0977C58.3578 11.6701 58.3036 11.308 58.7978 9.4498L59.3711 7.29746L60.3525 8.72392C61.1226 9.84305 61.2083 10.415 60.7511 11.3723ZM55.9534 10.162C55.5155 10.5795 55.1661 10.5647 54.6873 10.1082C54.1737 9.61849 54.2666 9.308 55.102 8.72023C56.0446 8.05655 56.2016 8.0634 56.368 8.774C56.4725 9.22049 56.2857 9.84516 55.9534 10.162ZM51.5239 10.1325C52.4007 11.765 54.2893 13.1377 55.6775 13.152C56.3144 13.1583 57.262 13.6127 57.7828 14.1614C58.632 15.056 58.6486 15.3454 57.9437 16.9537C57.0547 18.9822 53.5755 22.0613 53.2438 21.1124C53.1277 20.7798 53.4185 19.5874 53.8901 18.4624C54.6204 16.7223 54.6337 16.3275 53.9797 15.8098C53.3743 15.3307 53.0348 15.4609 52.3825 16.4229C51.9264 17.0945 51.3779 18.3559 51.1629 19.2257C50.5348 21.7713 50.2849 21.8515 48.7093 20.0107C47.6627 18.7882 46.9307 18.3681 46.2684 18.61C45.4027 18.9274 45.4286 19.1361 46.583 21.0939C47.2757 22.2695 48.6302 23.6954 49.5922 24.2621C51.5377 25.4086 52.0314 26.8688 52.0314 31.4724C52.0314 34.0154 51.9153 34.3174 51.0639 33.9885C50.5315 33.7829 49.4125 33.3781 48.5761 33.0897C47.2155 32.62 47.0551 32.3074 47.0507 30.1124C47.0441 27.0418 44.3179 22.1251 42.6218 22.1251C41.1296 22.1251 41.2391 23.4171 42.9076 25.503C44.1808 27.0945 45.4867 32.1408 44.6253 32.1408C43.6197 32.1408 40.5762 30.5747 39.6446 29.5779C38.3382 28.1799 36.5514 28.0866 36.5514 29.4155C36.5514 30.8978 40.9245 33.5594 45.2274 34.6965C47.3526 35.2579 49.8974 36.1145 50.8815 36.5995C52.5577 37.426 52.6202 37.5546 51.87 38.6332C51.4294 39.2663 49.9123 40.3527 48.4992 41.047L45.929 42.3095L44.1427 40.3728C42.7064 38.8156 41.7262 38.3127 39.1393 37.8077C36.239 37.2415 35.7232 37.2816 33.9032 38.2183C32.5178 38.9316 31.4397 40.1081 30.4672 41.9684L29.0502 44.679L26.5812 43.5499C24.5146 42.6042 24.0845 42.1461 23.9413 40.7407C23.6571 37.9426 26.9626 32.8072 30.0166 31.3011L31.7178 30.4624L31.3579 32.2906C30.8918 34.6611 31.8062 37.0222 33.0977 36.7829C33.8944 36.6348 34.032 36.1387 33.8822 33.9442C33.7186 31.5436 33.8938 31.0644 35.6829 29.0228C37.8445 26.5562 38.4781 24.9289 38.0707 22.8947C37.7345 21.2184 40.7327 17.9079 42.587 17.9079C45.7791 17.9079 49.7348 13.2727 49.1278 10.2426C48.7839 8.52993 50.6178 8.44559 51.5239 10.1325ZM19.0767 11.3296C19.9878 11.8989 20.2886 12.4914 20.1122 13.3707C19.9756 14.0523 20.2758 15.3691 20.7789 16.2974C21.8106 18.1989 21.5607 20.1435 20.0403 22.0444L19.0513 23.2811L18.0583 20.803C17.5121 19.4398 16.3865 17.5784 15.5561 16.6664C14.0103 14.9685 12.5447 12.6485 12.872 12.4166C15.848 10.308 17.0925 10.0903 19.0767 11.3296ZM46.5028 11.6227C46.5028 12.7598 43.7175 15.7993 42.6754 15.7993C42.3481 15.7993 42.08 15.3391 42.08 14.7761C42.08 13.3544 40.9422 12.8257 40.1383 13.8736C38.8911 15.5004 37.6571 14.5731 37.6571 12.0091C37.6571 11.1725 37.9269 10.9996 38.9011 11.2115C39.5849 11.3602 40.6426 11.2837 41.2507 11.0418C41.8588 10.7998 43.2896 10.5853 44.4296 10.5647C46.1722 10.5336 46.5028 10.7023 46.5028 11.6227ZM63.365 14.745C63.553 15.0349 64.1893 15.2721 64.7798 15.2721C65.7069 15.2721 65.8528 15.6517 65.8528 18.0655V20.8588L63.9831 20.6511C62.0243 20.4329 60.8832 21.2874 61.8723 22.2305C62.1841 22.5278 63.5629 22.892 64.9362 23.0397C67.0614 23.2679 67.5341 23.5399 68.1102 24.8662C68.4822 25.7228 69.337 26.7676 70.0098 27.1883C71.0928 27.8646 71.1824 28.211 70.791 30.2088C70.0645 33.9163 69.133 35.2447 65.9115 37.1661C64.2258 38.1714 62.6988 38.9938 62.5186 38.9938C61.629 38.9938 62.3555 34.7608 63.4385 33.6327C64.8654 32.1466 66.4057 29.3333 66.4057 28.2136C66.4057 26.5183 64.3679 27.3839 63.365 29.5051C62.8166 30.6648 62.2189 31.6079 62.037 31.601C61.8551 31.5942 61.1624 30.4081 60.4979 28.9653C59.61 27.0391 58.9858 26.3422 58.1482 26.3422C56.702 26.3422 56.7158 26.8314 58.2406 29.6206C59.9992 32.8372 60.2253 38.1298 58.7033 40.4434C57.3234 42.5409 56.4543 42.6395 56.4543 40.6991C56.4543 39.8978 55.9567 38.3564 55.3486 37.2747C54.5088 35.7808 54.2428 34.3006 54.2428 31.1229C54.2428 28.8214 54.0012 26.3322 53.706 25.5916C53.2333 24.4065 53.3561 24.153 54.7294 23.4756C56.7517 22.4782 59.1423 19.8488 60.876 16.7144C62.2797 14.1767 62.7535 13.8019 63.365 14.745ZM71.7966 17.7582L73.5934 18.046L72.5585 19.6902C71.989 20.5942 71.3449 22.046 71.126 22.9158L70.7291 24.4972L69.7201 22.6327C69.1656 21.6069 68.5303 19.8488 68.3097 18.7255C67.9432 16.8641 68.0001 16.7181 68.9533 17.0771C69.5288 17.2932 70.8081 17.6 71.7966 17.7582ZM16.1139 22.4508C16.7619 24.6569 16.7326 24.7618 15.0176 26.397C13.4884 27.8551 13.1506 27.9774 12.4634 27.3222C11.7762 26.6669 11.8215 26.2911 12.8073 24.4777C13.908 22.4529 13.9965 20.5178 13.0948 18.1714C12.8073 17.4229 13.0898 17.5615 14.0689 18.6506C14.828 19.4946 15.7479 21.2041 16.1139 22.4508ZM35.7332 23.2131C36.3585 25.0908 33.796 28.4508 31.7388 28.4508C28.8473 28.4508 25.0116 31.5663 22.7891 35.7202C21.9438 37.2995 20.9735 38.0254 17.872 39.3954C13.9047 41.1482 12.2257 41.4993 12.2257 40.5768C12.2257 39.6042 16.3306 35.7075 20.6838 32.5483C23.0595 30.8235 26.4043 27.7118 28.1165 25.6327C31.1113 21.9959 31.3087 21.8594 33.3183 22.0423C34.7568 22.173 35.5082 22.5373 35.7332 23.2131ZM77.5137 23.541C78.8433 23.2094 78.8942 24.2958 77.6398 26.2289C76.5136 27.9648 75.2885 28.978 74.3165 28.978C73.7963 28.978 73.5928 28.0391 73.5928 25.6395C73.5928 23.803 73.7377 22.1625 73.9152 21.9933C74.0926 21.824 74.7378 22.1625 75.3487 22.745C75.9983 23.3644 76.8973 23.6949 77.5137 23.541ZM88.4564 22.9585C88.5736 23.0618 88.2574 23.7471 87.7526 24.4809C86.6403 26.1003 85.1763 26.29 85.5954 24.7608C85.8121 23.9711 85.6125 23.7065 84.8004 23.7065C82.851 23.7065 81.7187 25.5821 81.3765 29.3775C81.0194 33.329 80.7944 33.5446 75.6633 34.8535C72.4634 35.6696 71.5401 35.1234 72.5496 33.0117C72.9167 32.2426 73.6127 31.6126 74.0965 31.6116C76.832 31.6058 81.3329 26.3396 81.3329 23.1451C81.3329 22.0781 81.5076 22.0407 84.7882 22.396C86.6889 22.6021 88.3392 22.8551 88.4564 22.9585ZM93.2193 26.4065C93.2193 27.5373 92.9489 27.6764 90.455 27.8246L87.6907 27.9896L88.8915 26.92C89.5516 26.3317 90.2576 25.3533 90.4605 24.745C90.795 23.7392 90.9365 23.7075 92.024 24.396C92.6913 24.8188 93.2193 25.7065 93.2193 26.4065ZM11.0592 29.2563C11.9929 30.27 12.8305 31.9289 13.0583 33.2152C13.4011 35.1482 13.2745 35.5973 12.0631 36.7529C10.4366 38.3037 7.12779 38.8056 6.1249 37.6537C5.11041 36.4882 5.91316 35.3037 7.71768 35.3037C9.43486 35.3037 10.895 34.1271 10.3056 33.2183C10.1093 32.9157 9.59077 32.668 9.15235 32.668C8.10358 32.668 8.1268 31.6643 9.18497 31.2774C10.1215 30.9347 10.2918 29.7313 9.47301 29.2484C8.53204 28.6938 6.86739 29.9284 5.2348 32.3923C4.36682 33.7023 3.40761 34.6959 3.10354 34.6C2.19243 34.3127 2.12166 32.6506 2.9808 31.7065C3.42254 31.2204 3.96157 30.114 4.17884 29.2468C4.67199 27.2758 5.0988 27.0265 7.51423 27.2953C8.84109 27.4429 9.95897 28.0607 11.0592 29.2563ZM97.5039 27.7455C97.1241 27.892 96.5022 27.892 96.1218 27.7455C95.742 27.5995 96.0527 27.4798 96.8129 27.4798C97.573 27.4798 97.8843 27.5995 97.5039 27.7455ZM85.7469 28.9184C83.6394 30.007 83.2386 29.9711 83.735 28.7371C83.9379 28.2336 84.7506 27.9237 85.8679 27.9237H87.6736L85.7469 28.9184ZM101.789 32.1719C101.789 33.9142 101.606 34.2494 100.656 34.2494C99.9044 34.2494 99.2653 33.6733 98.7561 32.5362C98.0148 30.882 98.0396 30.8019 99.4738 30.2152C101.442 29.4097 101.789 29.7023 101.789 32.1719ZM94.9608 30.4355C95.3107 30.6485 95.6839 31.2658 95.7901 31.8072C95.9791 32.7697 95.3063 33.357 93.3575 33.931C92.8251 34.0881 92.39 34.5636 92.39 34.988C92.39 36.0665 94.3244 36.5367 95.7563 35.8061C96.6365 35.3564 97.3049 35.3485 98.2857 35.7745C99.4345 36.2737 99.5318 36.5077 98.9917 37.4708C98.4747 38.3912 98.0214 38.5351 96.4131 38.2863C95.34 38.1197 93.6361 37.4445 92.6272 36.7855C90.9747 35.7059 90.8741 35.4998 91.616 34.7186C92.7593 33.5135 92.9119 30.823 91.8371 30.823C91.381 30.823 90.7646 31.3522 90.4666 31.999C89.7258 33.6084 88.7129 33.8673 87.0991 32.8588C85.56 31.8973 86.0305 30.7919 88.1457 30.3991C90.2366 30.0112 94.2996 30.0328 94.9608 30.4355ZM88.3447 36.6427C90.5833 38.2494 92.9688 39.776 93.6461 40.0359C94.7037 40.4418 94.5826 40.513 92.787 40.542C91.637 40.5599 89.8026 40.931 88.7113 41.3659C86.3638 42.3011 83.123 42.387 80.9541 41.5715C79.5079 41.0275 79.4764 40.9558 80.5036 40.5541C81.1117 40.3164 82.6746 40.1055 83.9761 40.085C85.6109 40.0596 86.4484 39.7871 86.6829 39.2041C87.5365 37.0839 83.5371 36.8746 78.845 38.7945C73.7952 40.8604 71.3676 41.3121 68.2838 40.7597L65.5764 40.2747L67.9432 38.7623C69.8882 37.5204 70.9308 37.2415 73.7886 37.1993C76.5645 37.1588 77.9278 36.8129 80.5434 35.4861C82.3462 34.572 83.923 33.8008 84.0479 33.7729C84.1729 33.745 86.1062 35.0365 88.3447 36.6427ZM40.7526 40.8989C44.1383 42.4308 42.5991 43.4387 37.6831 42.9084C35.2605 42.6469 34.4179 42.7497 33.8761 43.3722C33.3161 44.0159 33.3205 44.2542 33.8982 44.5963C35.2743 45.4097 42.0518 45.3875 45.448 44.5578C49.8471 43.4829 49.82 43.4782 49.82 45.358C49.82 46.6184 50.035 46.9384 50.7875 46.7982C51.52 46.6622 51.766 46.0702 51.7998 44.3596C51.8318 42.7318 52.1978 41.7771 53.11 40.9426L54.3755 39.7845L54.0399 42.717C53.3566 48.6922 52.1658 50.0428 49.2798 48.1155C47.3531 46.8282 41.1722 46.8388 39.1006 48.1324C37.583 49.0802 37.5294 49.0776 36.4768 48.0006C35.8504 47.3591 34.7132 46.901 33.7484 46.901C31.7526 46.901 31.2058 45.862 32.1086 43.7839C33.7141 40.0876 36.7327 39.0802 40.7526 40.8989ZM64.9732 42.426C68.051 43.3164 73.39 43.4587 75.4659 42.7065C76.5352 42.3185 77.5021 42.4713 79.6356 43.3654C81.1626 44.0053 82.4181 44.7934 82.4253 45.1166C82.4496 46.2046 80.0569 48.6042 78.2169 49.3369C75.7413 50.3232 74.6986 50.2505 74.6986 49.0913C74.6986 48.5562 74.2369 47.7201 73.6719 47.2331C72.8365 46.5119 72.5341 46.4756 72.0454 47.037C71.6628 47.4761 71.6313 48.008 71.9575 48.5003C72.632 49.5167 72.6265 52.8082 71.9481 54.5103C71.4361 55.7939 71.2012 55.8625 67.308 55.8625C64.0782 55.8625 63.1356 55.6853 62.8713 55.0285C62.3405 53.7101 62.4428 53.523 64.0699 52.8366C66.9978 51.6005 68.8869 46.3738 66.4057 46.3738C65.6953 46.3738 65.3 46.7254 65.3 47.3569C65.3 48.4719 63.2959 51.1181 62.4517 51.1181C62.1205 51.1181 62.0426 50.4766 62.2593 49.5362C62.5379 48.3274 62.4047 47.8741 61.6948 47.6142C61.1602 47.4186 60.5581 47.5868 60.2767 48.0101C59.6006 49.0291 59.6492 53.3785 60.3569 55.1534C60.8395 56.3638 60.7726 56.7402 59.9749 57.2963C59.4425 57.6674 58.7934 57.971 58.5319 57.971C57.8254 57.971 56.6384 54.9584 55.9578 51.4376C55.4149 48.6332 55.468 48.1593 56.4996 46.5673C57.5307 44.9769 61.2531 41.6211 61.9707 41.6353C62.1293 41.6385 63.4805 41.9943 64.9732 42.426ZM93.4957 43.7381C92.808 44.9632 92.6963 44.9858 91.1732 44.2088C90.2554 43.7402 90.1808 43.533 90.795 43.1624C91.2163 42.9078 92.1291 42.6964 92.824 42.6917C93.917 42.6848 94.0077 42.8261 93.4957 43.7381ZM86.81 48.9231C87.662 50.435 87.3148 50.8593 85.8403 50.1071C84.3382 49.3406 83.934 47.8841 84.7147 46.048L85.361 44.5288L85.7386 46.1102C85.9464 46.98 86.4285 48.2457 86.81 48.9231ZM90.9282 47.9331C90.7159 48.3801 90.4334 50.7623 90.3002 53.2267C90.0509 57.8419 89.7197 58.4761 87.5525 58.4903C85.9641 58.5003 85.989 58.2067 87.7653 55.9858C89.6108 53.679 90.0381 50.4439 88.8545 47.7433C87.605 44.8915 87.7338 44.5963 89.6406 45.9405C90.7779 46.7423 91.1909 47.3807 90.9282 47.9331ZM47.8678 50.0375C48.319 50.7333 46.8478 51.387 42.4946 52.4249C37.651 53.5799 36.9251 53.3163 39.1377 51.2067C40.7166 49.7017 41.2175 49.5367 44.2162 49.5367C46.0462 49.5367 47.6893 49.7618 47.8678 50.0375ZM84.3034 51.7107L86.7536 53.3569L85.2869 55.3806C83.6692 57.6131 83.1556 57.7966 81.5883 56.7038C80.5555 55.9837 80.5644 55.9342 81.8973 54.8962C82.9826 54.0507 83.1269 53.6922 82.5901 53.1714C82.0499 52.6479 81.319 52.8008 78.9887 53.9247C75.2564 55.7254 74.2148 55.7544 74.557 54.0491C74.7621 53.0259 75.4283 52.5789 77.815 51.863C79.4653 51.368 80.9464 50.7607 81.1067 50.5135C81.5258 49.8672 81.6043 49.8962 84.3034 51.7107ZM54.0377 53.7539L54.6044 56.3896H52.3123C51.0518 56.3896 48.7043 56.7623 47.0955 57.2178C44.2433 58.0253 44.1377 58.0169 42.8656 56.8777C42.148 56.2352 41.6769 55.5304 41.819 55.3116C41.9606 55.0928 43.2592 54.6368 44.7044 54.2979C46.1496 53.9589 48.4517 53.116 49.82 52.4239C51.1883 51.7317 52.5699 51.155 52.89 51.1419C53.2096 51.1287 53.7265 52.3042 54.0377 53.7539ZM86.4468 60.6063C88.2043 60.6068 88.264 60.8551 87.1307 63.4418C85.7784 66.5272 84.4244 65.902 80.1475 60.2188L78.1335 57.542L81.5297 59.0738C83.3978 59.9167 85.6109 60.6063 86.4468 60.6063ZM73.6957 58.5166C76.026 59.1339 78.5686 61.708 78.5686 63.4502C78.5686 64.426 78.0157 64.7976 75.3896 65.5862C73.6415 66.1113 71.9619 66.6268 71.6578 66.7312C70.76 67.0401 69.834 66.2246 69.4846 64.8187C68.9997 62.8635 69.7831 62.0359 71.5229 62.6663C72.6397 63.0712 73.1157 62.999 73.6885 62.3374C74.1313 61.8256 74.2032 61.4086 73.8693 61.2852C67.9902 59.1086 67.8559 56.97 73.6957 58.5166ZM55.7322 60.2784C55.583 60.8941 55.1938 62.1092 54.8676 62.9789C54.5414 63.8487 54.1516 65.1624 54.0012 65.8978C53.7934 66.9146 53.0343 67.5145 50.8334 68.4012C47.2802 69.8324 46.1363 69.2367 48.2747 67.068C50.4088 64.903 52.027 62.0997 52.0292 60.563C52.032 58.7897 52.2465 58.6337 54.2909 58.9194C55.704 59.1176 55.9561 59.3553 55.7322 60.2784ZM66.9348 59.5098C67.2472 60.0665 67.3583 61.5488 67.1825 62.8045C66.5323 67.4444 68.9113 69.7502 73.2141 68.65C74.4868 68.3247 75.9629 67.8983 76.4953 67.7027C77.2782 67.4149 77.4628 67.6347 77.4623 68.853C77.4617 70.106 77.009 70.6015 74.766 71.8029L72.0703 73.2462L69.9291 71.884C68.7515 71.1344 66.7009 69.5361 65.3724 68.3316C62.6573 65.8704 58.9344 60.7054 59.4884 60.1677C60.1291 59.5462 63.3185 58.5799 64.866 58.5383C65.8103 58.513 66.5771 58.8735 66.9348 59.5098ZM49.82 59.9763C49.82 61.1629 47.1314 65.2009 45.2401 66.8551L43.822 68.096L43.2592 66.1513C42.4128 63.2299 43.9652 60.3943 46.865 59.5657C49.2887 58.8725 49.82 58.9463 49.82 59.9763ZM59.223 66.8814C60.1977 70.8514 59.6111 77.5356 58.0813 79.8967C57.4406 80.8846 56.8606 81.6927 56.7915 81.6927C56.723 81.6927 57.2725 79.9331 58.0139 77.7823C59.4878 73.5056 59.3562 70.9478 57.6783 71.2509C57.0397 71.3664 56.6776 72.0216 56.5682 73.2625C56.4786 74.2752 55.9926 76.2894 55.4879 77.7391C54.5939 80.3084 54.5629 80.3353 54.2489 78.7934C54.0416 77.7733 54.2655 76.6505 54.8797 75.6305C55.468 74.6542 55.9794 72.2341 56.2165 69.3047C56.8252 61.7792 57.7806 61.0085 59.223 66.8814ZM84.4482 67.4597C85.4483 67.4597 85.4002 67.9594 84.2879 69.1313C83.3049 70.1671 80.5163 70.4407 79.9441 69.5577C79.7522 69.2625 79.8822 68.193 80.2321 67.1808L80.869 65.3416L82.281 66.4007C83.0578 66.9832 84.033 67.4597 84.4482 67.4597ZM68.26 73.5198C70.3819 74.8456 69.2291 76.1112 66.2476 75.7296C63.0598 75.3221 61.9828 74.1276 61.9828 71.0011V68.3796L64.38 70.4866C65.6986 71.6458 67.4445 73.0106 68.26 73.5198ZM53.69 71.6458C53.69 73.6342 53.2549 73.8535 51.0584 72.9731C48.8685 72.0949 48.7983 71.5298 50.7875 70.7802C53.2532 69.8514 53.69 69.9816 53.69 71.6458ZM62.5357 77.5055C62.5357 77.8123 62.2643 79.1761 61.9331 80.5366C61.4748 82.4175 60.7201 83.5445 58.7857 85.2372C57.3864 86.4618 56.2005 87.4106 56.1513 87.3458C56.1021 87.281 56.2414 86.0416 56.4604 84.592C56.6798 83.1423 56.8927 82.253 56.933 82.6152C57.1807 84.8229 60.5896 81.6147 61.2271 78.5741C61.5439 77.0633 62.5357 76.2536 62.5357 77.5055ZM65.3641 80.3506C64.5022 82.5155 63.046 84.6558 63.7973 82.6526C63.9798 82.166 64.296 80.9204 64.5 79.8851C64.7035 78.8498 65.1916 78.0026 65.5847 78.0026C66.1354 78.0026 66.085 78.5398 65.3641 80.3506ZM54.0477 83.1086C53.8912 83.2578 53.4976 83.223 53.1725 83.0311C52.7606 82.7886 52.7877 82.3332 53.2615 81.5287L53.9421 80.3748L54.1372 81.6062C54.2445 82.2836 54.2041 82.9594 54.0477 83.1086ZM51.8357 84.971L53.9144 86.1402L52.121 86.4902C51.1347 86.6826 49.8587 87.2446 49.2854 87.739C48.1797 88.6932 46.4542 88.671 46.1142 87.699C45.924 87.1539 48.7994 83.8013 49.4573 83.8013C49.6221 83.8013 50.6924 84.3273 51.8357 84.971ZM62.2073 86.5688C61.1259 88.3801 56.8921 94.3442 56.6881 94.3442C56.5593 94.3442 56.4543 93.5097 56.4543 92.4902C56.4543 90.971 56.9209 90.2103 59.0411 88.273C61.5295 85.9995 63.0294 85.1924 62.2073 86.5688ZM53.6734 91.3131C53.659 93.6241 53.5556 93.9067 53.0448 93.0263C52.7087 92.4465 51.9319 91.4438 51.3193 90.7986L50.2048 89.6252L51.5327 89.1186C53.6247 88.321 53.6911 88.389 53.6734 91.3131Z" fill="#466557"/>
<path d="M122 8V40.1031H126.706V8H122Z" fill="#32465A"/>
<path d="M139.025 20.7615V15.8563C138.198 15.8563 137.52 15.9959 136.991 16.2551C136.453 16.5243 136.014 16.8134 135.675 17.1324C135.326 17.4814 135.057 17.8303 134.878 18.1693C134.718 18.4883 134.619 18.7276 134.599 18.8871V16.2152H130.212V40.1031H134.599V23.5132C134.599 23.1443 134.648 22.7754 134.758 22.3965C134.888 22.0277 135.157 21.6687 135.556 21.3198C135.925 21.0008 136.293 20.8014 136.672 20.7216C137.071 20.6418 137.44 20.602 137.789 20.602C137.998 20.602 138.198 20.6219 138.387 20.6418C138.597 20.6718 138.806 20.7116 139.025 20.7615Z" fill="#32465A"/>
<path d="M149.771 20.7615V15.8563C148.943 15.8563 148.265 15.9959 147.737 16.2551C147.198 16.5243 146.76 16.8134 146.421 17.1324C146.072 17.4814 145.803 17.8303 145.623 18.1693C145.464 18.4883 145.364 18.7276 145.344 18.8871V16.2152H140.957V40.1031H145.344V23.5132C145.344 23.1443 145.394 22.7754 145.503 22.3965C145.633 22.0277 145.902 21.6687 146.301 21.3198C146.67 21.0008 147.039 20.8014 147.418 20.7216C147.816 20.6418 148.185 20.602 148.534 20.602C148.744 20.602 148.943 20.6219 149.132 20.6418C149.342 20.6718 149.551 20.7116 149.771 20.7615Z" fill="#32465A"/>
<path d="M151.702 8V12.4266H156.089V8H151.702ZM151.702 40.1031H156.089V16.2152H151.702V40.1031Z" fill="#32465A"/>
<path d="M170.376 28.5779V21.7983C170.376 21.7485 170.376 21.6787 170.376 21.599C170.376 21.4993 170.356 21.4195 170.336 21.3597C170.306 21.2799 170.296 21.1204 170.296 20.8811C170.266 20.8313 170.236 20.7515 170.217 20.6418C170.217 20.5421 170.197 20.4325 170.177 20.3228C170.436 20.1633 170.785 20.0436 171.214 19.9639C171.632 19.8642 172.141 19.8044 172.729 19.8044V15.8563C172.38 15.8563 172.021 15.956 171.652 16.1354C171.303 16.295 170.974 16.4944 170.655 16.7336C170.306 16.9729 169.997 17.2321 169.738 17.4914C169.469 17.7306 169.269 17.9201 169.14 18.0497C168.711 17.4714 168.143 16.963 167.425 16.5342C166.727 16.0856 165.83 15.8563 164.713 15.8563C163.297 15.8563 162.241 16.1753 161.523 16.8134C160.775 17.4515 160.207 18.1992 159.808 19.0467C159.429 19.8742 159.21 20.8313 159.13 21.918V28.4582C159.15 28.7773 159.19 29.1162 159.25 29.4552C159.299 29.7743 159.379 30.0933 159.489 30.4123C159.619 30.9707 159.848 31.5589 160.167 32.167C160.506 32.7553 161.004 33.2438 161.642 33.6426C160.945 34.0214 160.336 34.5199 159.808 35.158C159.539 35.477 159.309 35.826 159.13 36.1949C158.97 36.5438 158.891 36.8928 158.891 37.2317C158.891 38.1689 159.15 38.8867 159.688 39.3852C160.217 39.8638 160.845 40.2028 161.563 40.4221C161.164 40.6016 160.745 40.8209 160.326 41.0602C159.898 41.2995 159.529 41.5786 159.21 41.8977C158.891 42.1868 158.622 42.5058 158.412 42.8548C158.223 43.2236 158.133 43.6224 158.133 44.0511C158.133 44.8986 158.293 45.6164 158.612 46.2046C158.951 46.7829 159.449 47.2515 160.087 47.6004C160.695 47.9394 161.443 48.1986 162.32 48.3581C163.198 48.5376 164.155 48.6473 165.192 48.6772C166.089 48.6772 166.996 48.5675 167.903 48.3581C168.801 48.1388 169.618 47.8098 170.336 47.3612C171.024 46.8826 171.592 46.2445 172.051 45.4469C172.5 44.6693 172.729 43.7022 172.729 42.5357C172.729 41.4989 172.539 40.6414 172.171 39.9834C171.792 39.3254 171.313 38.7771 170.735 38.3484C170.117 37.9496 169.459 37.6604 168.741 37.471C168.023 37.2617 167.315 37.1021 166.627 36.9925C166.229 36.9426 165.83 36.8928 165.431 36.8329C165.032 36.7532 164.673 36.6535 164.354 36.5139C163.636 36.3345 163.277 35.9955 163.277 35.5169C163.277 35.148 163.477 34.7891 163.876 34.4402C163.926 34.4701 163.995 34.4801 164.075 34.4801C164.175 34.4801 164.255 34.4801 164.314 34.4801C164.364 34.4801 164.434 34.4801 164.514 34.4801C164.593 34.4801 164.653 34.4801 164.713 34.4801C166.069 34.4801 167.146 34.181 167.943 33.5628C169.459 32.3963 170.266 30.7314 170.376 28.5779ZM166.069 22.1174V28.6576C166.069 29.0564 166.029 29.4153 165.949 29.7344C165.84 30.0036 165.69 30.2528 165.511 30.4921C165.351 30.7114 165.082 30.8111 164.713 30.8111C164.364 30.8111 164.095 30.6915 163.916 30.4522C163.567 30.0534 163.407 29.4552 163.437 28.6576V22.1174C163.407 21.7485 163.437 21.3796 163.517 21.0008C163.597 20.7615 163.726 20.5222 163.916 20.2829C164.095 20.0436 164.364 19.924 164.713 19.924C165.082 19.924 165.361 20.0436 165.551 20.2829C165.89 20.7415 166.069 21.3497 166.069 22.1174ZM163.995 41.1798L166.268 41.6185C166.827 41.7182 167.245 41.8279 167.545 41.9375C167.864 42.0372 168.113 42.1768 168.302 42.3363C168.432 42.4659 168.512 42.6155 168.542 42.775C168.591 42.9345 168.621 43.114 168.621 43.3333C168.621 43.6224 168.512 43.8617 168.302 44.0511C168.083 44.2306 167.824 44.4101 167.505 44.5696C166.867 44.8288 166.119 44.9684 165.271 44.9684C164.255 44.9684 163.527 44.7889 163.078 44.4499C162.619 44.1309 162.4 43.7421 162.4 43.2934C162.4 42.8149 162.54 42.3961 162.839 42.0572C163.158 41.7381 163.537 41.439 163.995 41.1798Z" fill="#32465A"/>
<path d="M181.207 21.8781V24.5102C181.127 24.7494 180.898 24.9787 180.529 25.1881C180.15 25.4075 179.692 25.6567 179.133 25.9458C178.575 26.2449 177.987 26.6038 177.379 27.0226C176.76 27.4513 176.192 27.9996 175.664 28.6576C175.155 29.2957 174.717 30.1132 174.348 31.0903C173.999 32.0773 173.829 33.2338 173.829 34.5598C173.829 35.816 173.959 36.823 174.228 37.5907C174.487 38.3683 174.806 38.9466 175.185 39.3454C175.524 39.804 175.903 40.0931 176.302 40.2227C176.721 40.3822 177.079 40.462 177.379 40.462C177.797 40.462 178.216 40.3822 178.615 40.2227C179.034 40.0632 179.392 39.8638 179.692 39.6245C180.011 39.3852 180.26 39.136 180.449 38.8668C180.629 38.6076 180.788 38.3783 180.928 38.1889H181.207C181.207 38.3284 181.217 38.6176 181.247 39.0662C181.297 39.5248 181.416 39.8638 181.606 40.1031H185.953C185.843 39.5747 185.763 39.0164 185.713 38.4281C185.654 37.8499 185.634 37.0224 185.634 35.9556V21.2799C185.634 20.4823 185.484 19.7545 185.195 19.0865C184.896 18.4285 184.497 17.8702 183.999 17.4116C182.932 16.3747 181.686 15.8563 180.25 15.8563C178.545 15.8563 177.139 16.4844 176.023 17.7306C175.484 18.3189 175.066 18.9968 174.746 19.7645C174.447 20.5421 174.308 21.3597 174.308 22.237V23.234H178.734C178.734 23.0745 178.734 22.905 178.734 22.7156C178.734 22.5361 178.734 22.3367 178.734 22.1174C178.734 21.908 178.734 21.7086 178.734 21.5192C178.754 21.3397 178.784 21.1503 178.814 20.9609C178.864 20.6219 178.974 20.3228 179.133 20.0835C179.313 19.8443 179.612 19.7246 180.011 19.7246C180.509 19.7246 180.868 19.9639 181.087 20.4424C181.137 20.6618 181.167 20.911 181.167 21.2002C181.187 21.4693 181.207 21.6986 181.207 21.8781ZM181.207 28.5779V34.6795C181.207 35.1082 181.018 35.4571 180.649 35.7163C180.3 35.9855 179.871 36.1151 179.373 36.1151C179.103 36.1151 178.894 36.0354 178.734 35.8758C178.575 35.6964 178.455 35.4671 178.376 35.1979C178.296 34.9885 178.236 34.7592 178.216 34.5199C178.186 34.2607 178.176 34.0613 178.176 33.9217C178.176 32.7852 178.415 31.7184 178.894 30.7314C179.373 29.7543 180.14 29.0365 181.207 28.5779Z" fill="#32465A"/>
<path d="M200.061 40.1031V21.2799C200.111 21.1802 200.181 21.0805 200.261 21.0008C200.34 20.9011 200.43 20.8014 200.54 20.7216C200.669 20.5621 200.829 20.4325 201.018 20.3228C201.228 20.2231 201.457 20.1633 201.696 20.1633C201.936 20.1633 202.185 20.2231 202.454 20.3228C202.743 20.4325 202.893 20.7216 202.893 21.2002V40.1031H207.04V20.5222C207.04 20.0436 206.97 19.5252 206.841 18.9669C206.701 18.4086 206.502 17.9101 206.243 17.4515C205.973 17.0028 205.624 16.6339 205.206 16.3348C204.777 16.0158 204.288 15.8563 203.73 15.8563C203.331 15.8563 202.933 15.9759 202.534 16.2152C201.656 16.7237 200.939 17.282 200.38 17.8902C200.241 18.0297 200.111 18.1593 199.982 18.2889C199.872 18.3986 199.782 18.4784 199.702 18.5282C199.463 17.8403 199.104 17.2321 198.626 16.6938C198.147 16.1354 197.509 15.8563 196.711 15.8563C196.333 15.8563 195.964 15.966 195.595 16.1753C195.216 16.3947 194.847 16.6539 194.478 16.9729C194.099 17.272 193.81 17.5213 193.601 17.7306C193.302 18.0297 193.122 18.1892 193.042 18.2092V16.2152H188.656V40.1031H193.042V21.2799C193.122 21.1802 193.202 21.0805 193.282 21.0008C193.361 20.9011 193.441 20.8014 193.521 20.7216C193.681 20.5621 193.85 20.4325 194.039 20.3228C194.249 20.2231 194.478 20.1633 194.717 20.1633C194.957 20.1633 195.206 20.2231 195.475 20.3228C195.764 20.4325 195.914 20.7216 195.914 21.2002V40.1031H200.061Z" fill="#32465A"/>
<path d="M210.253 16.2152V21.0805H214.839V16.2152H210.253ZM210.253 35.2378V40.1031H214.839V35.2378H210.253Z" fill="#32465A"/>
<path d="M228.978 34.5997V21.7186C228.978 21.2999 229.028 20.8711 229.137 20.4424C229.237 20.0237 229.586 19.8044 230.174 19.8044C230.673 19.8044 231.012 19.9539 231.171 20.243C231.351 20.5122 231.45 21.0008 231.45 21.7186V24.5899H235.877V22.7156C235.877 21.3896 235.757 20.2829 235.518 19.4056C235.279 18.5282 234.92 17.8303 234.441 17.292C233.963 16.7935 233.365 16.4345 232.647 16.2152C231.929 15.9759 231.101 15.8563 230.174 15.8563C229.397 15.8563 228.659 15.9759 227.941 16.2152C227.243 16.4545 226.665 16.8533 226.186 17.4116C225.678 17.95 225.279 18.6678 224.99 19.5651C224.691 20.4724 224.551 21.599 224.551 22.9549V33.3634C224.551 34.7193 224.691 35.8559 224.99 36.7532C225.279 37.6605 225.678 38.3783 226.186 38.9067C226.665 39.465 227.243 39.8638 227.941 40.1031C228.659 40.3424 229.397 40.462 230.174 40.462C231.101 40.462 231.929 40.3424 232.647 40.1031C233.365 39.8937 233.963 39.5348 234.441 39.0263C234.92 38.4979 235.279 37.7901 235.518 36.9127C235.757 36.0354 235.877 34.9387 235.877 33.6027V31.2897H231.45V34.5997C231.45 35.3175 231.351 35.826 231.171 36.1151C231.012 36.3843 230.673 36.5139 230.174 36.5139C229.586 36.5139 229.237 36.3045 229.137 35.8758C229.028 35.4571 228.978 35.0284 228.978 34.5997Z" fill="#32465A"/>
<path d="M245.489 16.2152V35.0384C245.409 35.148 245.329 35.2577 245.249 35.3574C245.19 35.4671 245.14 35.5468 245.09 35.5967C244.93 35.7562 244.771 35.8958 244.611 35.9955C244.452 36.1051 244.252 36.155 244.013 36.155C243.774 36.155 243.535 36.1051 243.295 35.9955C243.076 35.8958 242.976 35.5967 242.976 35.1181V16.2152H238.59V35.7961C238.59 36.2746 238.639 36.7931 238.749 37.3514C238.879 37.9097 239.078 38.4082 239.347 38.8269C239.607 39.3055 239.955 39.7043 240.384 40.0233C240.803 40.3124 241.311 40.462 241.9 40.462C242.268 40.462 242.657 40.3424 243.056 40.1031C243.475 39.8638 243.834 39.6145 244.133 39.3454C244.452 39.0562 244.741 38.787 245.01 38.5478C245.249 38.2886 245.409 38.139 245.489 38.1091V40.1031H249.876V16.2152H245.489Z" fill="#32465A"/>
<path d="M253.389 40.1031H257.776V8H253.389V40.1031Z" fill="#32465A"/>
<path d="M266.6 10.313H262.213V16.2152H259.98V20.2032H262.213V32.4063C262.213 33.1241 262.233 33.9516 262.293 34.8788C262.372 35.7861 262.552 36.6535 262.851 37.471C263.17 38.2985 263.658 39.0064 264.326 39.5846C265.014 40.1629 266.001 40.462 267.278 40.462C267.965 40.462 268.534 40.4022 268.992 40.3025C269.092 40.2725 269.202 40.2426 269.311 40.2227C269.411 40.1928 269.521 40.1629 269.63 40.1429V35.8359C269.551 35.8659 269.451 35.8758 269.351 35.8758C269.272 35.8758 269.192 35.8958 269.112 35.9157C268.952 35.9456 268.763 35.9755 268.554 35.9955C268.364 35.9955 268.175 35.9955 267.995 35.9955C267.646 35.9955 267.377 35.8559 267.198 35.5568C267.008 35.2677 266.879 34.9387 266.799 34.5598C266.689 34.161 266.62 33.7522 266.6 33.3235C266.6 32.8749 266.6 32.4661 266.6 32.0873V20.2032H269.63V16.2152H266.6V10.313Z" fill="#32465A"/>
<path d="M271.997 8V12.4266H276.384V8H271.997ZM271.997 40.1031H276.384V16.2152H271.997V40.1031Z" fill="#32465A"/>
<path d="M282.376 40.1031H286.763L290.631 16.2152H286.364L284.928 30.0534L284.729 31.5688H284.41L284.21 30.0534L282.775 16.2152H278.507L282.376 40.1031Z" fill="#32465A"/>
<path d="M299.405 21.8781V24.5102C299.325 24.7494 299.096 24.9787 298.727 25.1881C298.348 25.4075 297.89 25.6567 297.331 25.9458C296.773 26.2449 296.185 26.6038 295.577 27.0226C294.959 27.4513 294.39 27.9996 293.862 28.6576C293.353 29.2957 292.915 30.1132 292.546 31.0903C292.197 32.0773 292.027 33.2338 292.027 34.5598C292.027 35.816 292.157 36.823 292.426 37.5907C292.685 38.3683 293.004 38.9466 293.383 39.3454C293.722 39.804 294.101 40.0931 294.5 40.2227C294.919 40.3822 295.278 40.462 295.577 40.462C295.995 40.462 296.414 40.3822 296.813 40.2227C297.232 40.0632 297.591 39.8638 297.89 39.6245C298.209 39.3852 298.458 39.136 298.647 38.8668C298.827 38.6076 298.986 38.3783 299.126 38.1889H299.405C299.405 38.3284 299.415 38.6176 299.445 39.0662C299.495 39.5248 299.614 39.8638 299.804 40.1031H304.151C304.041 39.5747 303.961 39.0164 303.911 38.4281C303.852 37.8499 303.832 37.0224 303.832 35.9556V21.2799C303.832 20.4823 303.682 19.7545 303.393 19.0865C303.094 18.4285 302.695 17.8702 302.197 17.4116C301.13 16.3747 299.884 15.8563 298.448 15.8563C296.743 15.8563 295.337 16.4844 294.221 17.7306C293.682 18.3189 293.264 18.9968 292.945 19.7645C292.645 20.5421 292.506 21.3597 292.506 22.237V23.234H296.933C296.933 23.0745 296.933 22.905 296.933 22.7156C296.933 22.5361 296.933 22.3367 296.933 22.1174C296.933 21.908 296.933 21.7086 296.933 21.5192C296.952 21.3397 296.982 21.1503 297.012 20.9609C297.062 20.6219 297.172 20.3228 297.331 20.0835C297.511 19.8443 297.81 19.7246 298.209 19.7246C298.707 19.7246 299.066 19.9639 299.285 20.4424C299.335 20.6618 299.365 20.911 299.365 21.2002C299.385 21.4693 299.405 21.6986 299.405 21.8781ZM299.405 28.5779V34.6795C299.405 35.1082 299.216 35.4571 298.847 35.7163C298.498 35.9855 298.069 36.1151 297.571 36.1151C297.301 36.1151 297.092 36.0354 296.933 35.8758C296.773 35.6964 296.653 35.4671 296.574 35.1979C296.494 34.9885 296.434 34.7592 296.414 34.5199C296.384 34.2607 296.374 34.0613 296.374 33.9217C296.374 32.7852 296.614 31.7184 297.092 30.7314C297.571 29.7543 298.338 29.0365 299.405 28.5779Z" fill="#32465A"/>
<path d="M311.241 40.1031V21.2799C311.32 21.1802 311.38 21.0805 311.44 21.0008C311.52 20.9011 311.58 20.8014 311.639 20.7216C311.799 20.5621 311.958 20.4325 312.118 20.3228C312.278 20.2231 312.477 20.1633 312.716 20.1633C312.955 20.1633 313.175 20.2231 313.394 20.3228C313.633 20.4325 313.753 20.7216 313.753 21.2002V40.1031H318.14V20.5222C318.14 20.0436 318.07 19.5252 317.94 18.9669C317.831 18.4086 317.641 17.9101 317.382 17.4515C317.113 17.0028 316.764 16.6339 316.345 16.3348C315.917 16.0158 315.408 15.8563 314.83 15.8563C314.451 15.8563 314.082 15.966 313.713 16.1753C313.314 16.3947 312.936 16.6539 312.597 16.9729C312.278 17.272 312.008 17.5213 311.799 17.7306C311.5 18.0297 311.32 18.1892 311.241 18.2092V16.2152H306.854V40.1031H311.241Z" fill="#32465A"/>
<path d="M332.7 40.1031V8H328.274V17.7705C328.084 17.611 327.895 17.4515 327.716 17.2919C327.556 17.1324 327.367 16.9729 327.157 16.8134C326.838 16.604 326.459 16.3947 326.041 16.1753C325.612 15.9659 325.203 15.8563 324.804 15.8563C324.186 15.8563 323.668 16.0158 323.249 16.3348C322.82 16.6339 322.471 17.0028 322.212 17.4515C321.913 17.9101 321.704 18.4086 321.574 18.9669C321.434 19.5252 321.375 20.0436 321.375 20.5222V35.7961C321.375 36.2746 321.434 36.7931 321.574 37.3514C321.704 37.9097 321.913 38.4082 322.212 38.8269C322.471 39.3055 322.82 39.7043 323.249 40.0233C323.668 40.3124 324.186 40.462 324.804 40.462C325.223 40.462 325.652 40.3523 326.08 40.1429C326.479 39.9336 326.848 39.7043 327.197 39.465C327.536 39.2058 327.895 38.8967 328.274 38.5478V40.1031H332.7ZM328.274 21.4394V34.8788C328.274 35.2776 328.134 35.6266 327.875 35.9157C327.606 36.1849 327.317 36.3145 326.998 36.3145C326.679 36.3145 326.399 36.1849 326.16 35.9157C325.921 35.6266 325.801 35.2776 325.801 34.8788V21.4394C325.801 21.0406 325.921 20.7116 326.16 20.4424C326.399 20.1533 326.679 20.0038 326.998 20.0038C327.317 20.0038 327.606 20.1633 327.875 20.4823C328.134 20.7814 328.274 21.1004 328.274 21.4394Z" fill="#32465A"/>
<path d="M347.134 34.2807V22.0376C347.074 21.4594 346.994 20.921 346.895 20.4424C346.785 19.9439 346.625 19.4455 346.416 18.9669C346.067 18.2291 345.509 17.5213 344.741 16.8533C343.963 16.1953 342.867 15.8563 341.431 15.8563C339.966 15.8563 338.879 16.1753 338.161 16.8134C337.413 17.4515 336.845 18.2092 336.446 19.0865C336.067 19.9639 335.858 20.9908 335.808 22.1573V34.161C335.828 34.7492 335.898 35.3076 336.008 35.836C336.137 36.3444 336.297 36.8329 336.486 37.3115C336.855 38.0892 337.413 38.807 338.161 39.465C338.929 40.123 340.015 40.462 341.431 40.462C342.887 40.462 343.993 40.143 344.741 39.5049C346.197 38.3085 346.994 36.5737 347.134 34.2807ZM342.986 22.1573V34.161C343.006 34.6396 342.957 35.0583 342.827 35.3973C342.747 35.7163 342.598 35.9955 342.388 36.2348C342.169 36.4541 341.85 36.5538 341.431 36.5538C341.052 36.5538 340.753 36.4541 340.514 36.2348C340.115 35.7064 339.926 35.0184 339.956 34.161V22.1573C339.926 21.6787 339.966 21.2699 340.075 20.921C340.175 20.602 340.324 20.3228 340.514 20.0835C340.723 19.8443 341.032 19.7246 341.431 19.7246C341.85 19.7246 342.169 19.8343 342.388 20.0436C342.807 20.5521 343.006 21.26 342.986 22.1573Z" fill="#32465A"/>
<path d="M367.882 34.2807V22.0376C367.822 21.4594 367.742 20.921 367.643 20.4424C367.533 19.9439 367.373 19.4455 367.164 18.9669C366.815 18.2291 366.257 17.5213 365.489 16.8533C364.711 16.1953 363.615 15.8563 362.179 15.8563C360.714 15.8563 359.627 16.1753 358.909 16.8134C358.161 17.4515 357.593 18.2092 357.194 19.0865C356.815 19.9639 356.606 20.9908 356.556 22.1573V34.161C356.576 34.7492 356.646 35.3076 356.756 35.836C356.885 36.3444 357.045 36.8329 357.234 37.3115C357.603 38.0892 358.161 38.807 358.909 39.465C359.677 40.123 360.763 40.462 362.179 40.462C363.635 40.462 364.741 40.143 365.489 39.5049C366.945 38.3085 367.742 36.5737 367.882 34.2807ZM363.734 22.1573V34.161C363.754 34.6396 363.705 35.0583 363.575 35.3973C363.495 35.7163 363.346 35.9955 363.136 36.2348C362.917 36.4541 362.598 36.5538 362.179 36.5538C361.8 36.5538 361.501 36.4541 361.262 36.2348C360.863 35.7064 360.674 35.0184 360.704 34.161V22.1573C360.674 21.6787 360.714 21.2699 360.823 20.921C360.923 20.602 361.072 20.3228 361.262 20.0835C361.471 19.8443 361.78 19.7246 362.179 19.7246C362.598 19.7246 362.917 19.8343 363.136 20.0436C363.555 20.5521 363.754 21.26 363.734 22.1573Z" fill="#32465A"/>
<path d="M384.363 22.3168H388.47C388.47 21.6588 388.411 20.9409 388.311 20.1633C388.231 19.3956 387.992 18.6877 387.593 18.0497C387.214 17.4116 386.646 16.8832 385.878 16.4545C385.13 16.0357 384.124 15.8363 382.847 15.8563C381.811 15.8862 380.933 16.1155 380.215 16.5342C379.517 16.933 378.979 17.4415 378.58 18.0497C378.152 18.6877 377.862 19.3956 377.703 20.1633C377.543 20.911 377.464 21.6288 377.464 22.3168C377.464 23.1941 377.593 23.9817 377.862 24.6697C378.122 25.3676 378.441 26.0056 378.82 26.5839C379.238 27.1422 379.697 27.6806 380.175 28.1791C380.654 28.6875 381.143 29.1761 381.651 29.6546C382.339 30.3226 382.967 31.0105 383.525 31.7283C384.104 32.4462 384.403 33.184 384.403 33.9217C384.403 34.6196 384.303 35.2677 384.124 35.8758C383.934 36.494 383.525 36.7931 382.887 36.7931C382.429 36.7931 382.07 36.6634 381.811 36.3943C381.541 36.135 381.332 35.816 381.172 35.4371C381.033 35.0982 380.943 34.7093 380.893 34.2806C380.863 33.8619 380.853 33.483 380.853 33.164H376.746C376.746 33.8021 376.806 34.5399 376.945 35.3574C377.075 36.1849 377.354 36.9825 377.783 37.7502C378.201 38.468 378.83 39.1061 379.657 39.6644C380.475 40.1928 381.551 40.462 382.887 40.462C383.944 40.462 384.821 40.2626 385.519 39.8638C386.237 39.445 386.835 38.9067 387.314 38.2686C387.733 37.6604 388.042 36.9725 388.231 36.1949C388.411 35.4272 388.51 34.6695 388.51 33.9217C388.51 33.1241 388.391 32.3864 388.151 31.6885C387.912 31.0005 387.603 30.3525 387.234 29.7344C386.835 29.1761 386.377 28.6377 385.878 28.0993C385.4 27.5709 384.931 27.0824 384.482 26.6238C384.104 26.3047 383.745 25.9757 383.406 25.6268C383.087 25.2579 382.788 24.899 382.528 24.55C382.229 24.2111 381.99 23.8521 381.811 23.4733C381.651 23.1044 381.571 22.7156 381.571 22.3168C381.571 22.0276 381.581 21.7186 381.611 21.3995C381.631 21.0606 381.711 20.7515 381.85 20.4823C381.93 20.2231 382.05 19.9938 382.209 19.8044C382.389 19.6249 382.628 19.5252 382.927 19.5252C383.266 19.5252 383.535 19.6249 383.725 19.8044C383.934 19.9938 384.094 20.2231 384.203 20.4823C384.283 20.7814 384.323 21.0805 384.323 21.3995C384.343 21.7186 384.363 22.0276 384.363 22.3168Z" fill="#32465A"/>
<path d="M402.203 31.529H398.095V34.161C398.095 34.6695 398.036 35.0782 397.936 35.3973C397.826 35.7163 397.667 35.9955 397.457 36.2348C397.238 36.4541 396.919 36.5538 396.5 36.5538C396.121 36.5538 395.822 36.4541 395.583 36.2348C395.154 35.7064 394.925 35.0184 394.905 34.161V28.9767H402.203V22.0376C402.173 21.4594 402.093 20.921 401.964 20.4424C401.854 19.9439 401.694 19.4455 401.485 18.9669C401.136 18.2291 400.578 17.5213 399.81 16.8533C399.032 16.1953 397.936 15.8563 396.5 15.8563C395.064 15.8563 393.968 16.1753 393.23 16.8134C391.715 18.0696 390.897 19.8443 390.797 22.1573V34.161C390.817 34.7492 390.887 35.3076 390.997 35.836C391.126 36.3444 391.296 36.8329 391.515 37.3115C391.854 38.0892 392.412 38.807 393.19 39.465C393.958 40.123 395.045 40.462 396.46 40.462C397.916 40.462 399.032 40.143 399.81 39.5049C400.578 38.8668 401.146 38.139 401.525 37.3115C401.924 36.4641 402.143 35.4571 402.203 34.2807V31.529ZM394.905 25.5071V22.1573C394.925 21.918 394.955 21.7086 394.985 21.5192C395.005 21.3098 395.045 21.1104 395.104 20.921C395.234 20.602 395.393 20.3228 395.583 20.0835C395.792 19.8443 396.101 19.7246 396.5 19.7246C396.919 19.7246 397.258 19.8343 397.497 20.0436C397.896 20.5521 398.095 21.26 398.095 22.1573V25.5071H394.905Z" fill="#32465A"/>
<path d="M412.041 16.2152V35.0384C411.961 35.148 411.881 35.2577 411.801 35.3574C411.742 35.4671 411.692 35.5468 411.642 35.5967C411.482 35.7562 411.323 35.8958 411.163 35.9955C411.004 36.1051 410.804 36.155 410.565 36.155C410.326 36.155 410.087 36.1051 409.847 35.9955C409.628 35.8958 409.528 35.5967 409.528 35.1181V16.2152H405.142V35.7961C405.142 36.2746 405.191 36.7931 405.301 37.3514C405.431 37.9097 405.63 38.4082 405.899 38.8269C406.158 39.3055 406.507 39.7043 406.936 40.0233C407.355 40.3124 407.863 40.462 408.452 40.462C408.82 40.462 409.209 40.3424 409.608 40.1031C410.027 39.8638 410.386 39.6145 410.685 39.3454C411.004 39.0562 411.293 38.787 411.562 38.5478C411.801 38.2886 411.961 38.139 412.041 38.1091V40.1031H416.427V16.2152H412.041Z" fill="#32465A"/>
<path d="M433.328 22.3168H437.436C437.436 21.6588 437.376 20.9409 437.276 20.1633C437.196 19.3956 436.957 18.6877 436.558 18.0497C436.18 17.4116 435.611 16.8832 434.844 16.4545C434.096 16.0357 433.089 15.8363 431.813 15.8563C430.776 15.8862 429.898 16.1155 429.181 16.5342C428.483 16.933 427.944 17.4415 427.546 18.0497C427.117 18.6877 426.828 19.3956 426.668 20.1633C426.509 20.911 426.429 21.6288 426.429 22.3168C426.429 23.1941 426.559 23.9817 426.828 24.6697C427.087 25.3676 427.406 26.0056 427.785 26.5839C428.204 27.1422 428.662 27.6806 429.141 28.1791C429.619 28.6875 430.108 29.1761 430.616 29.6546C431.304 30.3226 431.932 31.0105 432.491 31.7283C433.069 32.4462 433.368 33.184 433.368 33.9217C433.368 34.6196 433.268 35.2677 433.089 35.8758C432.899 36.494 432.491 36.7931 431.853 36.7931C431.394 36.7931 431.035 36.6634 430.776 36.3943C430.507 36.135 430.297 35.816 430.138 35.4371C429.998 35.0982 429.908 34.7093 429.859 34.2806C429.829 33.8619 429.819 33.483 429.819 33.164H425.711C425.711 33.8021 425.771 34.5399 425.911 35.3574C426.04 36.1849 426.319 36.9825 426.748 37.7502C427.167 38.468 427.795 39.1061 428.622 39.6644C429.44 40.1928 430.517 40.462 431.853 40.462C432.909 40.462 433.787 40.2626 434.485 39.8638C435.202 39.445 435.801 38.9067 436.279 38.2686C436.698 37.6604 437.007 36.9725 437.196 36.1949C437.376 35.4272 437.476 34.6695 437.476 33.9217C437.476 33.1241 437.356 32.3864 437.117 31.6885C436.877 31.0005 436.568 30.3525 436.199 29.7344C435.801 29.1761 435.342 28.6377 434.844 28.0993C434.365 27.5709 433.896 27.0824 433.448 26.6238C433.069 26.3047 432.71 25.9757 432.371 25.6268C432.052 25.2579 431.753 24.899 431.494 24.55C431.195 24.2111 430.955 23.8521 430.776 23.4733C430.616 23.1044 430.537 22.7156 430.537 22.3168C430.537 22.0276 430.547 21.7186 430.576 21.3995C430.596 21.0606 430.676 20.7515 430.816 20.4823C430.895 20.2231 431.015 19.9938 431.175 19.8044C431.354 19.6249 431.593 19.5252 431.892 19.5252C432.231 19.5252 432.501 19.6249 432.69 19.8044C432.899 19.9938 433.059 20.2231 433.169 20.4823C433.248 20.7814 433.288 21.0805 433.288 21.3995C433.308 21.7186 433.328 22.0276 433.328 22.3168Z" fill="#32465A"/>
<path d="M451.168 31.529H447.061V34.161C447.061 34.6695 447.001 35.0782 446.901 35.3973C446.792 35.7163 446.632 35.9955 446.423 36.2348C446.203 36.4541 445.884 36.5538 445.466 36.5538C445.087 36.5538 444.788 36.4541 444.548 36.2348C444.12 35.7064 443.89 35.0184 443.87 34.161V28.9767H451.168V22.0376C451.138 21.4594 451.059 20.921 450.929 20.4424C450.819 19.9439 450.66 19.4455 450.45 18.9669C450.102 18.2291 449.543 17.5213 448.776 16.8533C447.998 16.1953 446.901 15.8563 445.466 15.8563C444.03 15.8563 442.933 16.1753 442.195 16.8134C440.68 18.0696 439.862 19.8443 439.763 22.1573V34.161C439.783 34.7492 439.852 35.3076 439.962 35.836C440.092 36.3444 440.261 36.8329 440.481 37.3115C440.82 38.0892 441.378 38.807 442.156 39.465C442.923 40.123 444.01 40.462 445.426 40.462C446.881 40.462 447.998 40.143 448.776 39.5049C449.543 38.8668 450.111 38.139 450.49 37.3115C450.889 36.4641 451.108 35.4571 451.168 34.2807V31.529ZM443.87 25.5071V22.1573C443.89 21.918 443.92 21.7086 443.95 21.5192C443.97 21.3098 444.01 21.1104 444.07 20.921C444.199 20.602 444.359 20.3228 444.548 20.0835C444.758 19.8443 445.067 19.7246 445.466 19.7246C445.884 19.7246 446.223 19.8343 446.462 20.0436C446.861 20.5521 447.061 21.26 447.061 22.1573V25.5071H443.87Z" fill="#32465A"/>
<path d="M463 20.7615V15.8563C462.172 15.8563 461.495 15.9959 460.966 16.2551C460.428 16.5243 459.989 16.8134 459.65 17.1324C459.301 17.4814 459.032 17.8303 458.852 18.1693C458.693 18.4883 458.593 18.7276 458.573 18.8871V16.2152H454.187V40.1031H458.573V23.5132C458.573 23.1443 458.623 22.7754 458.733 22.3965C458.862 22.0277 459.132 21.6687 459.53 21.3198C459.899 21.0008 460.268 20.8014 460.647 20.7216C461.046 20.6418 461.415 20.602 461.764 20.602C461.973 20.602 462.172 20.6219 462.362 20.6418C462.571 20.6718 462.781 20.7116 463 20.7615Z" fill="#32465A"/>
<path d="M176.894 67.6953C177.104 67.8349 177.223 68.0044 177.253 68.2138C177.303 68.4331 177.253 68.6425 177.094 68.8518C176.984 69.0113 176.834 69.111 176.655 69.131C176.466 69.131 176.276 69.0911 176.097 69.0113C175.459 68.5926 174.761 68.2536 174.023 68.0144C173.275 67.7751 172.468 67.6554 171.59 67.6554C170.553 67.6554 169.576 67.8449 168.679 68.2138C167.772 68.5627 166.984 69.0911 166.326 69.8089C165.658 70.5068 165.14 71.3244 164.771 72.2815C164.392 73.2186 164.213 74.2356 164.213 75.3522C164.213 76.5286 164.392 77.5855 164.771 78.5426C165.17 79.4997 165.698 80.3272 166.366 81.0151C167.054 81.6831 167.842 82.2015 168.719 82.5704C169.616 82.9193 170.573 83.0888 171.59 83.0888C172.438 83.0888 173.235 82.9692 173.983 82.7299C174.721 82.4906 175.429 82.1716 176.097 81.7728C176.256 81.6731 176.426 81.6332 176.615 81.6532C176.824 81.6831 176.984 81.7728 177.094 81.9323C177.253 82.1218 177.303 82.3311 177.253 82.5704C177.223 82.7897 177.114 82.9493 176.934 83.049C176.505 83.3181 175.997 83.5674 175.419 83.8067C174.83 84.0459 174.202 84.2354 173.544 84.365C172.906 84.5245 172.248 84.6043 171.59 84.6043C170.364 84.6043 169.207 84.3849 168.121 83.9662C167.054 83.5175 166.097 82.8894 165.249 82.0918C164.392 81.2743 163.734 80.2873 163.255 79.1408C162.797 78.0042 162.577 76.738 162.577 75.3522C162.577 74.0262 162.797 72.7999 163.255 71.6833C163.734 70.5467 164.382 69.5697 165.21 68.7721C166.027 67.9545 166.984 67.3165 168.081 66.8578C169.168 66.3793 170.334 66.14 171.59 66.14C172.567 66.14 173.514 66.2796 174.422 66.5388C175.319 66.808 176.147 67.1968 176.894 67.6953Z" fill="#32465A"/>
<path d="M192.421 77.7849C192.421 79.0909 192.122 80.2574 191.543 81.2943C190.985 82.3311 190.207 83.1487 189.23 83.7269C188.273 84.3151 187.167 84.6043 185.92 84.6043C184.694 84.6043 183.587 84.3151 182.61 83.7269C181.623 83.1487 180.836 82.3311 180.257 81.2943C179.699 80.2574 179.42 79.0909 179.42 77.7849C179.42 76.4589 179.699 75.2924 180.257 74.2755C180.836 73.2386 181.623 72.431 182.61 71.8428C183.587 71.2346 184.694 70.9256 185.92 70.9256C187.167 70.9256 188.273 71.2346 189.23 71.8428C190.207 72.431 190.985 73.2386 191.543 74.2755C192.122 75.2924 192.421 76.4589 192.421 77.7849ZM190.865 77.7849C190.865 76.748 190.646 75.8208 190.227 74.9933C189.799 74.1758 189.21 73.5377 188.473 73.0791C187.725 72.6005 186.877 72.3612 185.92 72.3612C184.983 72.3612 184.136 72.6005 183.368 73.0791C182.62 73.5377 182.022 74.1758 181.573 74.9933C181.145 75.8208 180.935 76.748 180.935 77.7849C180.935 78.8217 181.145 79.7589 181.573 80.5764C182.022 81.374 182.62 82.0121 183.368 82.4906C184.136 82.9493 184.983 83.1686 185.92 83.1686C186.877 83.1686 187.725 82.9493 188.473 82.4906C189.21 82.0121 189.799 81.374 190.227 80.5764C190.646 79.7589 190.865 78.8217 190.865 77.7849Z" fill="#32465A"/>
<path d="M197.434 83.6073C197.434 83.7967 197.354 83.9662 197.195 84.1257C197.035 84.2852 196.846 84.365 196.637 84.365C196.417 84.365 196.238 84.2852 196.078 84.1257C195.939 83.9662 195.879 83.7967 195.879 83.6073V66.1001C195.879 65.8908 195.939 65.7213 196.078 65.5817C196.238 65.4222 196.417 65.3424 196.637 65.3424C196.876 65.3424 197.055 65.4222 197.195 65.5817C197.354 65.7213 197.434 65.8908 197.434 66.1001V83.6073Z" fill="#32465A"/>
<path d="M207.58 84.6043C206.244 84.6043 205.077 84.3251 204.07 83.7668C203.053 83.2085 202.276 82.4308 201.717 81.4139C201.159 80.4069 200.88 79.2205 200.88 77.8646C200.88 76.409 201.159 75.1727 201.717 74.1558C202.296 73.1189 203.043 72.3214 203.951 71.763C204.878 71.2047 205.865 70.9256 206.902 70.9256C207.639 70.9256 208.357 71.0651 209.055 71.3244C209.773 71.5936 210.411 71.9923 210.969 72.5208C211.528 73.0292 211.976 73.6673 212.325 74.435C212.664 75.1827 212.854 76.0501 212.884 77.0271C212.854 77.2465 212.764 77.4259 212.604 77.5855C212.465 77.725 212.295 77.7849 212.086 77.7849H201.757L201.438 76.3891H211.607L211.249 76.7081V76.1897C211.189 75.3921 210.94 74.7141 210.491 74.1558C210.032 73.5776 209.494 73.1389 208.856 72.8398C208.218 72.5507 207.56 72.4011 206.902 72.4011C206.363 72.4011 205.835 72.5108 205.307 72.7201C204.768 72.9395 204.28 73.2585 203.831 73.6773C203.402 74.106 203.043 74.6643 202.754 75.3522C202.485 76.0202 202.355 76.8178 202.355 77.745C202.355 78.7619 202.555 79.6791 202.954 80.4967C203.372 81.3242 203.971 81.9722 204.748 82.4508C205.546 82.9293 206.473 83.1686 207.54 83.1686C208.148 83.1686 208.696 83.0888 209.175 82.9293C209.653 82.7499 210.062 82.5206 210.411 82.2514C210.78 81.9622 211.089 81.6731 211.328 81.374C211.508 81.2145 211.697 81.1347 211.887 81.1347C212.066 81.1347 212.216 81.2045 212.325 81.3341C212.455 81.4737 212.525 81.6133 212.525 81.7728C212.525 81.9921 212.445 82.1716 212.285 82.3311C211.777 82.9493 211.109 83.4777 210.291 83.9263C209.464 84.375 208.557 84.6043 207.58 84.6043Z" fill="#32465A"/>
<path d="M215.338 71.2845H221.32C221.53 71.2845 221.699 71.3643 221.839 71.5238C221.968 71.6634 222.038 71.8229 222.038 72.0023C222.038 72.1918 221.968 72.3612 221.839 72.5208C221.699 72.6603 221.53 72.7202 221.32 72.7202H215.338C215.119 72.7202 214.939 72.6603 214.78 72.5208C214.64 72.3612 214.581 72.1918 214.581 72.0023C214.581 71.793 214.64 71.6235 214.78 71.4839C214.939 71.3543 215.119 71.2845 215.338 71.2845ZM217.97 67.6555C218.18 67.6555 218.349 67.7352 218.489 67.8947C218.648 68.0343 218.728 68.2038 218.728 68.4132V81.3342C218.728 81.8127 218.788 82.1716 218.927 82.4109C219.057 82.6502 219.226 82.8097 219.446 82.8895C219.655 82.9692 219.855 83.0091 220.044 83.0091C220.204 83.0091 220.333 82.9991 220.443 82.9692C220.543 82.9194 220.662 82.8895 220.802 82.8895C220.961 82.8895 221.091 82.9592 221.201 83.0889C221.3 83.1985 221.36 83.3481 221.36 83.5275C221.36 83.7668 221.22 83.9662 220.961 84.1257C220.692 84.2852 220.363 84.365 219.964 84.365C219.825 84.365 219.605 84.355 219.286 84.3251C218.967 84.3052 218.648 84.2055 218.329 84.046C218.01 83.8864 217.741 83.6073 217.532 83.2085C217.312 82.7898 217.213 82.1916 217.213 81.4139V68.4132C217.213 68.2038 217.272 68.0343 217.412 67.8947C217.571 67.7352 217.751 67.6555 217.97 67.6555Z" fill="#32465A"/>
<path d="M226.374 83.6073C226.374 83.7967 226.294 83.9662 226.135 84.1257C225.995 84.2852 225.826 84.365 225.616 84.365C225.397 84.365 225.218 84.2852 225.058 84.1257C224.919 83.9662 224.859 83.7967 224.859 83.6073V71.7631C224.859 71.5537 224.919 71.3842 225.058 71.2446C225.218 71.0851 225.397 71.0053 225.616 71.0053C225.826 71.0053 225.995 71.0851 226.135 71.2446C226.294 71.3842 226.374 71.5537 226.374 71.7631V83.6073ZM225.616 69.2905C225.268 69.2905 224.998 69.2108 224.819 69.0512C224.629 68.8718 224.54 68.6325 224.54 68.3334V68.0543C224.54 67.7651 224.629 67.5358 224.819 67.3763C225.028 67.2168 225.307 67.137 225.656 67.137C225.975 67.137 226.225 67.2168 226.414 67.3763C226.594 67.5358 226.693 67.7651 226.693 68.0543V68.3334C226.693 68.6325 226.594 68.8718 226.414 69.0512C226.225 69.2108 225.955 69.2905 225.616 69.2905Z" fill="#32465A"/>
<path d="M230.086 70.9256C230.216 70.9256 230.345 70.9854 230.485 71.0851C230.644 71.1648 230.744 71.2845 230.804 71.444L235.31 82.1716L234.991 82.371L239.577 71.444C239.707 71.105 239.956 70.9455 240.335 70.9654C240.495 70.9654 240.654 71.0253 240.814 71.125C240.973 71.2346 241.053 71.3942 241.053 71.6035C241.053 71.7132 241.033 71.7929 241.013 71.8428C240.983 71.9026 240.953 71.9624 240.933 72.0422L235.908 83.8864C235.769 84.1855 235.55 84.345 235.231 84.365C235.071 84.3849 234.912 84.365 234.752 84.2852C234.612 84.1855 234.513 84.0459 234.433 83.8864L229.368 72.0422C229.368 72.0223 229.348 71.9824 229.328 71.9226C229.298 71.8428 229.288 71.763 229.288 71.6833C229.288 71.5038 229.348 71.3244 229.488 71.1648C229.647 71.0053 229.847 70.9256 230.086 70.9256Z" fill="#32465A"/>
<path d="M256.26 77.7849C256.26 79.0909 255.961 80.2574 255.383 81.2943C254.824 82.3311 254.047 83.1487 253.07 83.7269C252.113 84.3151 251.006 84.6043 249.76 84.6043C248.533 84.6043 247.427 84.3151 246.45 83.7269C245.463 83.1487 244.675 82.3311 244.097 81.2943C243.538 80.2574 243.259 79.0909 243.259 77.7849C243.259 76.4589 243.538 75.2924 244.097 74.2755C244.675 73.2386 245.463 72.431 246.45 71.8428C247.427 71.2346 248.533 70.9256 249.76 70.9256C251.006 70.9256 252.113 71.2346 253.07 71.8428C254.047 72.431 254.824 73.2386 255.383 74.2755C255.961 75.2924 256.26 76.4589 256.26 77.7849ZM254.705 77.7849C254.705 76.748 254.485 75.8208 254.067 74.9933C253.638 74.1758 253.05 73.5377 252.312 73.0791C251.564 72.6005 250.717 72.3612 249.76 72.3612C248.822 72.3612 247.975 72.6005 247.207 73.0791C246.46 73.5377 245.861 74.1758 245.413 74.9933C244.984 75.8208 244.775 76.748 244.775 77.7849C244.775 78.8217 244.984 79.7589 245.413 80.5764C245.861 81.374 246.46 82.0121 247.207 82.4906C247.975 82.9493 248.822 83.1686 249.76 83.1686C250.717 83.1686 251.564 82.9493 252.312 82.4906C253.05 82.0121 253.638 81.374 254.067 80.5764C254.485 79.7589 254.705 78.8217 254.705 77.7849Z" fill="#32465A"/>
<path d="M277.351 65.3424C277.59 65.3424 277.769 65.4222 277.909 65.5817C278.069 65.7213 278.148 65.8908 278.148 66.1001V83.6073C278.148 83.7967 278.069 83.9662 277.909 84.1257C277.75 84.2852 277.56 84.365 277.351 84.365C277.131 84.365 276.952 84.2852 276.792 84.1257C276.653 83.9662 276.593 83.7967 276.593 83.6073V80.5366L277.032 80.1776C277.032 80.6562 276.892 81.1647 276.633 81.6931C276.364 82.2015 275.995 82.6801 275.516 83.1287C275.058 83.5873 274.519 83.9463 273.881 84.2055C273.263 84.4647 272.605 84.6043 271.887 84.6043C270.741 84.6043 269.704 84.3151 268.777 83.7269C267.869 83.1188 267.152 82.3112 266.623 81.2943C266.085 80.2574 265.826 79.081 265.826 77.745C265.826 76.4489 266.085 75.2725 266.623 74.2356C267.152 73.1987 267.869 72.3912 268.777 71.8029C269.674 71.2247 270.701 70.9256 271.847 70.9256C272.565 70.9256 273.223 71.0652 273.841 71.3244C274.479 71.5637 275.038 71.9126 275.516 72.3612C276.015 72.8199 276.404 73.3383 276.673 73.9165C276.962 74.4749 277.111 75.0631 277.111 75.6712L276.593 75.2725V66.1001C276.593 65.8908 276.653 65.7213 276.792 65.5817C276.952 65.4222 277.131 65.3424 277.351 65.3424ZM272.007 83.1686C272.934 83.1686 273.742 82.9493 274.44 82.4907C275.127 82.0121 275.676 81.374 276.075 80.5764C276.473 79.7589 276.673 78.8118 276.673 77.745C276.673 76.738 276.473 75.8208 276.075 74.9933C275.676 74.1758 275.117 73.5377 274.4 73.0791C273.702 72.6005 272.904 72.3612 272.007 72.3612C271.13 72.3612 270.332 72.6005 269.614 73.0791C268.896 73.5377 268.338 74.1758 267.939 74.9933C267.54 75.8208 267.341 76.738 267.341 77.745C267.341 78.7819 267.54 79.719 267.939 80.5366C268.338 81.3641 268.896 82.0121 269.614 82.4907C270.332 82.9493 271.13 83.1686 272.007 83.1686Z" fill="#32465A"/>
<path d="M288.119 84.6043C286.783 84.6043 285.616 84.3251 284.609 83.7668C283.592 83.2085 282.815 82.4308 282.256 81.4139C281.698 80.4069 281.419 79.2205 281.419 77.8646C281.419 76.409 281.698 75.1727 282.256 74.1558C282.834 73.1189 283.582 72.3214 284.489 71.763C285.417 71.2047 286.404 70.9256 287.441 70.9256C288.178 70.9256 288.896 71.0651 289.594 71.3244C290.312 71.5936 290.95 71.9923 291.508 72.5208C292.067 73.0292 292.515 73.6673 292.864 74.435C293.203 75.1827 293.393 76.0501 293.422 77.0271C293.393 77.2465 293.303 77.4259 293.143 77.5855C293.004 77.725 292.834 77.7849 292.625 77.7849H282.296L281.977 76.3891H292.146L291.787 76.7081V76.1897C291.728 75.3921 291.478 74.7141 291.03 74.1558C290.571 73.5776 290.033 73.1389 289.395 72.8398C288.757 72.5507 288.099 72.4011 287.441 72.4011C286.902 72.4011 286.374 72.5108 285.845 72.7201C285.307 72.9395 284.818 73.2585 284.37 73.6773C283.941 74.106 283.582 74.6643 283.293 75.3522C283.024 76.0202 282.894 76.8178 282.894 77.745C282.894 78.7619 283.094 79.6791 283.492 80.4967C283.911 81.3242 284.509 81.9722 285.287 82.4508C286.085 82.9293 287.012 83.1686 288.079 83.1686C288.687 83.1686 289.235 83.0888 289.714 82.9293C290.192 82.7499 290.601 82.5206 290.95 82.2514C291.319 81.9622 291.628 81.6731 291.867 81.374C292.047 81.2145 292.236 81.1347 292.425 81.1347C292.605 81.1347 292.755 81.2045 292.864 81.3341C292.994 81.4737 293.064 81.6133 293.064 81.7728C293.064 81.9921 292.984 82.1716 292.824 82.3311C292.316 82.9493 291.648 83.4777 290.83 83.9263C290.003 84.375 289.096 84.6043 288.119 84.6043Z" fill="#32465A"/>
<path d="M310.997 66.3394C311.954 66.3394 312.792 66.5687 313.51 67.0174C314.247 67.4461 314.836 68.0443 315.264 68.812C315.713 69.5896 315.942 70.4769 315.942 71.4839C315.942 72.4709 315.713 73.3582 315.264 74.1558C314.836 74.9534 314.247 75.5915 313.51 76.07C312.792 76.5286 311.954 76.748 310.997 76.748H305.534L305.653 76.5087V83.6073C305.653 83.7967 305.574 83.9662 305.414 84.1257C305.275 84.2852 305.105 84.365 304.896 84.365C304.656 84.365 304.467 84.2852 304.337 84.1257C304.198 83.9662 304.138 83.7967 304.138 83.6073V67.137C304.138 66.9276 304.198 66.7382 304.337 66.5787C304.497 66.4192 304.676 66.3394 304.896 66.3394H310.997ZM310.997 75.2724C311.655 75.2724 312.233 75.1129 312.712 74.7939C313.211 74.4549 313.609 73.9863 313.908 73.3981C314.198 72.8198 314.347 72.1818 314.347 71.4839C314.347 70.766 314.198 70.1479 313.908 69.6095C313.609 69.0811 313.211 68.6724 312.712 68.3733C312.233 68.0542 311.655 67.8947 310.997 67.8947H305.534L305.653 67.6554V75.432L305.494 75.2724H310.997Z" fill="#32465A"/>
<path d="M318.317 82.2912C318.178 82.0819 318.118 81.8825 318.118 81.6931C318.138 81.4837 318.248 81.3242 318.437 81.2145C318.596 81.0849 318.756 81.035 318.916 81.055C319.095 81.055 319.274 81.1347 319.434 81.2943C319.883 81.9124 320.441 82.4009 321.109 82.7698C321.767 83.1487 322.555 83.3281 323.462 83.3281C323.94 83.3281 324.419 83.2484 324.897 83.0888C325.376 82.9094 325.755 82.6502 326.054 82.3311C326.373 81.9921 326.533 81.5634 326.533 81.055C326.533 80.5266 326.373 80.0979 326.054 79.7788C325.755 79.4399 325.356 79.1707 324.858 78.9812C324.379 78.8018 323.861 78.6423 323.302 78.5027C322.714 78.3432 322.146 78.1737 321.587 77.9843C321.049 77.7749 320.571 77.5256 320.152 77.2265C319.753 76.9374 319.414 76.5785 319.155 76.1498C318.886 75.7011 318.756 75.1727 318.756 74.5546C318.756 73.8368 318.955 73.2186 319.354 72.6803C319.753 72.122 320.281 71.7032 320.949 71.4041C321.637 71.0851 322.405 70.9256 323.262 70.9256C323.681 70.9256 324.15 70.9854 324.658 71.0851C325.157 71.1948 325.655 71.3842 326.134 71.6434C326.612 71.8827 327.031 72.2316 327.41 72.6803C327.569 72.8398 327.649 73.0292 327.649 73.2386C327.649 73.428 327.549 73.5975 327.37 73.757C327.23 73.8368 327.071 73.8767 326.891 73.8767C326.732 73.8767 326.582 73.8168 326.453 73.6773C326.054 73.2286 325.555 72.8797 324.977 72.6404C324.419 72.4011 323.821 72.2815 323.183 72.2815C322.674 72.2815 322.196 72.3612 321.747 72.5208C321.318 72.6803 320.959 72.9395 320.67 73.2785C320.371 73.5975 320.232 74.0262 320.232 74.5546C320.251 75.0332 320.431 75.432 320.75 75.751C321.069 76.07 321.478 76.3392 321.986 76.5486C322.515 76.738 323.113 76.9075 323.781 77.067C324.339 77.2265 324.868 77.406 325.376 77.5855C325.875 77.7749 326.313 78.0142 326.692 78.3033C327.091 78.5725 327.39 78.9214 327.609 79.3402C327.849 79.7689 327.968 80.3172 327.968 80.9752C327.968 81.723 327.749 82.371 327.33 82.9293C326.931 83.4876 326.373 83.9163 325.655 84.2055C324.957 84.4647 324.18 84.6043 323.302 84.6043C322.395 84.6043 321.508 84.4248 320.63 84.0858C319.753 83.7169 318.975 83.1187 318.317 82.2912Z" fill="#32465A"/>
<path d="M332.619 83.6073C332.619 83.7967 332.539 83.9662 332.379 84.1257C332.24 84.2852 332.07 84.365 331.861 84.365C331.642 84.365 331.462 84.2852 331.303 84.1257C331.163 83.9662 331.103 83.7967 331.103 83.6073V71.7631C331.103 71.5537 331.163 71.3842 331.303 71.2446C331.462 71.0851 331.642 71.0053 331.861 71.0053C332.07 71.0053 332.24 71.0851 332.379 71.2446C332.539 71.3842 332.619 71.5537 332.619 71.7631V83.6073ZM331.861 69.2905C331.512 69.2905 331.243 69.2108 331.063 69.0512C330.874 68.8718 330.784 68.6325 330.784 68.3334V68.0543C330.784 67.7651 330.874 67.5358 331.063 67.3763C331.273 67.2168 331.552 67.137 331.901 67.137C332.22 67.137 332.469 67.2168 332.658 67.3763C332.838 67.5358 332.938 67.7651 332.938 68.0543V68.3334C332.938 68.6325 332.838 68.8718 332.658 69.0512C332.469 69.2108 332.2 69.2905 331.861 69.2905Z" fill="#32465A"/>
<path d="M342.432 70.9256C343.25 70.9256 344.007 71.0253 344.705 71.2047C345.393 71.3642 345.941 71.6035 346.34 71.9226C346.759 72.2217 346.978 72.5507 346.978 72.9195C346.978 73.0791 346.909 73.2585 346.779 73.438C346.669 73.5975 346.51 73.6773 346.3 73.6773C346.111 73.6773 345.951 73.6274 345.822 73.5177C345.682 73.418 345.553 73.2984 345.423 73.1588C345.283 73.0292 345.104 72.8996 344.865 72.76C344.645 72.6603 344.326 72.5606 343.908 72.4809C343.509 72.4011 343.04 72.3612 342.512 72.3612C341.555 72.3612 340.687 72.6005 339.92 73.0791C339.142 73.5576 338.534 74.2156 338.085 75.0332C337.627 75.8308 337.407 76.738 337.407 77.745C337.407 78.7818 337.617 79.719 338.045 80.5365C338.494 81.364 339.092 82.0121 339.84 82.4906C340.578 82.9493 341.455 83.1686 342.472 83.1686C343.16 83.1686 343.688 83.1187 344.067 83.0091C344.466 82.8795 344.795 82.7299 345.064 82.5704C345.383 82.3909 345.602 82.2115 345.742 82.052C345.902 81.8725 346.101 81.7728 346.34 81.7728C346.58 81.7728 346.749 81.8426 346.859 81.9722C346.958 82.1118 347.018 82.2713 347.018 82.4508C347.018 82.7499 346.819 83.0689 346.42 83.4079C346.021 83.7269 345.463 84.0061 344.745 84.2453C344.047 84.4846 343.25 84.6043 342.352 84.6043C341.046 84.6043 339.9 84.3151 338.923 83.7269C337.966 83.1187 337.218 82.2912 336.689 81.2544C336.151 80.2175 335.892 79.051 335.892 77.745C335.892 76.4987 336.151 75.3721 336.689 74.3552C337.248 73.3183 338.015 72.5008 339.002 71.8827C339.979 71.2446 341.126 70.9256 342.432 70.9256Z" fill="#32465A"/>
<path d="M362.221 77.7849C362.221 79.0909 361.922 80.2574 361.344 81.2943C360.786 82.3311 360.008 83.1487 359.031 83.7269C358.074 84.3151 356.967 84.6043 355.721 84.6043C354.495 84.6043 353.388 84.3151 352.411 83.7269C351.424 83.1487 350.636 82.3311 350.058 81.2943C349.5 80.2574 349.221 79.0909 349.221 77.7849C349.221 76.4589 349.5 75.2924 350.058 74.2755C350.636 73.2386 351.424 72.431 352.411 71.8428C353.388 71.2346 354.495 70.9256 355.721 70.9256C356.967 70.9256 358.074 71.2346 359.031 71.8428C360.008 72.431 360.786 73.2386 361.344 74.2755C361.922 75.2924 362.221 76.4589 362.221 77.7849ZM360.666 77.7849C360.666 76.748 360.447 75.8208 360.028 74.9933C359.599 74.1758 359.011 73.5377 358.273 73.0791C357.526 72.6005 356.678 72.3612 355.721 72.3612C354.784 72.3612 353.936 72.6005 353.169 73.0791C352.421 73.5377 351.823 74.1758 351.374 74.9933C350.945 75.8208 350.736 76.748 350.736 77.7849C350.736 78.8217 350.945 79.7589 351.374 80.5764C351.823 81.374 352.421 82.0121 353.169 82.4906C353.936 82.9493 354.784 83.1686 355.721 83.1686C356.678 83.1686 357.526 82.9493 358.273 82.4906C359.011 82.0121 359.599 81.374 360.028 80.5764C360.447 79.7589 360.666 78.8217 360.666 77.7849Z" fill="#32465A"/>
<path d="M367.235 83.6073C367.235 83.7967 367.155 83.9662 366.996 84.1257C366.836 84.2852 366.647 84.365 366.437 84.365C366.218 84.365 366.038 84.2852 365.879 84.1257C365.739 83.9662 365.68 83.7967 365.68 83.6073V66.1001C365.68 65.8908 365.739 65.7213 365.879 65.5817C366.038 65.4222 366.218 65.3424 366.437 65.3424C366.677 65.3424 366.856 65.4222 366.996 65.5817C367.155 65.7213 367.235 65.8908 367.235 66.1001V83.6073Z" fill="#32465A"/>
<path d="M383.681 77.7849C383.681 79.0909 383.382 80.2574 382.804 81.2943C382.246 82.3311 381.468 83.1487 380.491 83.7269C379.534 84.3151 378.427 84.6043 377.181 84.6043C375.955 84.6043 374.848 84.3151 373.871 83.7269C372.884 83.1487 372.096 82.3311 371.518 81.2943C370.96 80.2574 370.68 79.0909 370.68 77.7849C370.68 76.4589 370.96 75.2924 371.518 74.2755C372.096 73.2386 372.884 72.431 373.871 71.8428C374.848 71.2346 375.955 70.9256 377.181 70.9256C378.427 70.9256 379.534 71.2346 380.491 71.8428C381.468 72.431 382.246 73.2386 382.804 74.2755C383.382 75.2924 383.681 76.4589 383.681 77.7849ZM382.126 77.7849C382.126 76.748 381.907 75.8208 381.488 74.9933C381.059 74.1758 380.471 73.5377 379.733 73.0791C378.985 72.6005 378.138 72.3612 377.181 72.3612C376.244 72.3612 375.396 72.6005 374.629 73.0791C373.881 73.5377 373.283 74.1758 372.834 74.9933C372.405 75.8208 372.196 76.748 372.196 77.7849C372.196 78.8217 372.405 79.7589 372.834 80.5764C373.283 81.374 373.881 82.0121 374.629 82.4906C375.396 82.9493 376.244 83.1686 377.181 83.1686C378.138 83.1686 378.985 82.9493 379.733 82.4906C380.471 82.0121 381.059 81.374 381.488 80.5764C381.907 79.7589 382.126 78.8217 382.126 77.7849Z" fill="#32465A"/>
<path d="M392.443 70.9256C393.211 70.9256 393.919 71.0651 394.557 71.3244C395.215 71.5936 395.793 71.9425 396.272 72.3612C396.77 72.76 397.159 73.1987 397.428 73.6773C397.717 74.1558 397.867 74.6144 397.867 75.0332L397.428 74.3951V72.0023C397.428 71.7929 397.488 71.6035 397.628 71.444C397.787 71.2845 397.967 71.2047 398.186 71.2047C398.425 71.2047 398.605 71.2845 398.744 71.444C398.904 71.6035 398.984 71.7929 398.984 72.0023V83.1686C398.984 84.5245 398.685 85.6611 398.106 86.5982C397.548 87.5554 396.77 88.2732 395.793 88.7517C394.836 89.2502 393.739 89.5095 392.523 89.5095C391.905 89.5095 391.267 89.4297 390.609 89.2702C389.941 89.1107 389.373 88.9113 388.894 88.672C388.435 88.4327 388.186 88.1934 388.136 87.9541C387.997 87.7946 387.937 87.6351 387.937 87.4756C387.937 87.336 388.017 87.2164 388.176 87.1167C388.336 87.007 388.505 86.997 388.695 87.0768C388.874 87.1765 389.153 87.2961 389.532 87.4357C389.712 87.4856 389.951 87.5653 390.25 87.675C390.539 87.7747 390.888 87.8744 391.287 87.9541C391.686 88.0339 392.104 88.0738 392.563 88.0738C394.098 88.0738 395.295 87.6152 396.152 86.7179C397 85.8405 397.428 84.684 397.428 83.2484V80.7758L397.707 80.8556C397.548 81.4737 397.289 82.0121 396.95 82.4906C396.601 82.9493 396.192 83.3281 395.714 83.6472C395.235 83.9662 394.717 84.2055 394.158 84.365C393.6 84.5245 393.042 84.6043 392.483 84.6043C391.287 84.6043 390.22 84.3151 389.293 83.7269C388.356 83.1187 387.618 82.3112 387.06 81.2943C386.501 80.2574 386.222 79.0809 386.222 77.745C386.222 76.4489 386.501 75.2724 387.06 74.2356C387.618 73.1987 388.356 72.3911 389.293 71.8029C390.22 71.2247 391.267 70.9256 392.443 70.9256ZM392.643 72.3612C391.686 72.3612 390.828 72.6005 390.09 73.0791C389.343 73.5377 388.755 74.1758 388.336 74.9933C387.937 75.8208 387.738 76.738 387.738 77.745C387.738 78.7818 387.937 79.719 388.336 80.5365C388.755 81.364 389.343 82.0121 390.09 82.4906C390.828 82.9493 391.686 83.1686 392.643 83.1686C393.57 83.1686 394.407 82.9493 395.155 82.4906C395.893 82.0121 396.481 81.374 396.91 80.5764C397.329 79.7589 397.548 78.8118 397.548 77.745C397.548 76.6882 397.329 75.751 396.91 74.9534C396.481 74.1359 395.893 73.4978 395.155 73.0392C394.407 72.5905 393.57 72.3612 392.643 72.3612Z" fill="#32465A"/>
<path d="M404.512 83.6073C404.512 83.7967 404.432 83.9662 404.272 84.1257C404.133 84.2852 403.963 84.365 403.754 84.365C403.535 84.365 403.355 84.2852 403.196 84.1257C403.056 83.9662 402.996 83.7967 402.996 83.6073V71.7631C402.996 71.5537 403.056 71.3842 403.196 71.2446C403.355 71.0851 403.535 71.0053 403.754 71.0053C403.963 71.0053 404.133 71.0851 404.272 71.2446C404.432 71.3842 404.512 71.5537 404.512 71.7631V83.6073ZM403.754 69.2905C403.405 69.2905 403.136 69.2108 402.956 69.0512C402.767 68.8718 402.677 68.6325 402.677 68.3334V68.0543C402.677 67.7651 402.767 67.5358 402.956 67.3763C403.166 67.2168 403.445 67.137 403.794 67.137C404.113 67.137 404.362 67.2168 404.552 67.3763C404.731 67.5358 404.831 67.7651 404.831 68.0543V68.3334C404.831 68.6325 404.731 68.8718 404.552 69.0512C404.362 69.2108 404.093 69.2905 403.754 69.2905Z" fill="#32465A"/>
<path d="M419.31 71.2047C419.549 71.2047 419.729 71.2845 419.868 71.444C420.028 71.6035 420.108 71.7929 420.108 72.0023V83.6073C420.108 83.7967 420.028 83.9662 419.868 84.1257C419.709 84.2852 419.52 84.365 419.31 84.365C419.091 84.365 418.911 84.2852 418.752 84.1257C418.612 83.9662 418.552 83.7967 418.552 83.6073V80.5365L418.991 80.3371C418.991 80.8157 418.852 81.3142 418.592 81.8127C418.323 82.2912 417.954 82.7499 417.476 83.1686C417.017 83.5973 416.479 83.9463 415.841 84.2055C415.222 84.4647 414.564 84.6043 413.847 84.6043C412.67 84.6043 411.623 84.3151 410.696 83.7269C409.789 83.1187 409.071 82.2912 408.543 81.2544C408.034 80.2175 407.785 79.051 407.785 77.745C407.785 76.3891 408.044 75.2126 408.583 74.1957C409.111 73.1887 409.829 72.3911 410.736 71.8029C411.633 71.2247 412.66 70.9256 413.807 70.9256C414.545 70.9256 415.242 71.0651 415.88 71.3244C416.519 71.5636 417.077 71.9126 417.555 72.3612C418.034 72.8198 418.403 73.3383 418.672 73.9165C418.931 74.4748 419.071 75.0631 419.071 75.6712L418.552 75.2724V72.0023C418.552 71.7929 418.612 71.6035 418.752 71.444C418.911 71.2845 419.091 71.2047 419.31 71.2047ZM413.966 83.1686C414.864 83.1686 415.661 82.9493 416.359 82.4906C417.077 82.0121 417.635 81.364 418.034 80.5365C418.433 79.6891 418.632 78.7619 418.632 77.745C418.632 76.738 418.433 75.8308 418.034 75.0332C417.635 74.2156 417.077 73.5576 416.359 73.0791C415.661 72.6005 414.864 72.3612 413.966 72.3612C413.089 72.3612 412.291 72.6005 411.574 73.0791C410.856 73.5377 410.297 74.1558 409.899 74.9534C409.5 75.751 409.3 76.6882 409.3 77.745C409.3 78.7619 409.5 79.6891 409.899 80.5365C410.297 81.364 410.836 82.0121 411.534 82.4906C412.251 82.9493 413.059 83.1686 413.966 83.1686Z" fill="#32465A"/>
</svg>
