<svg width="104" height="98" viewBox="0 0 104 98" fill="none" xmlns="http://www.w3.org/2000/svg">
<path fill-rule="evenodd" clip-rule="evenodd" d="M33.2884 1.64591C31.5657 3.1388 31.1776 3.2495 28.6583 2.96536C24.451 2.48988 23.7655 3.07554 23.9546 6.97959C24.0911 9.79877 23.9756 10.2542 23.0766 10.4287C22.5072 10.5394 21.2693 10.0861 20.3267 9.42133C18.4459 8.09556 16.3163 8.01069 13.9688 9.1683C11.4379 10.4161 10.4206 11.8541 10.8253 13.6111C11.0415 14.5499 10.9071 15.6111 10.4925 16.2442C9.91419 17.1272 9.96837 17.6079 10.8159 19.1087C12.1787 21.5209 11.6795 23.6622 9.83347 23.3259C9.08656 23.1899 8.15555 23.445 7.653 23.9247C7.17091 24.3844 6.41847 24.7608 5.98171 24.7608C4.60897 24.7608 2.37377 26.8177 2.00446 28.4208C1.80985 29.2668 1.29293 30.2421 0.856726 30.5873C-1.90093 32.7697 2.47217 39.4798 7.24499 40.3896C8.15997 40.5641 8.90854 41.0391 8.90854 41.445C8.90854 42.532 11.6275 43.3432 14.1817 43.0185C15.4096 42.8625 17.5862 42.1097 19.0192 41.3464L21.6243 39.9579V41.3211C21.6243 43.0027 23.2298 44.5899 26.2412 45.8851C27.5028 46.4281 29.2813 47.3511 30.1935 47.9373C31.1058 48.523 32.536 49.0043 33.3725 49.0059C34.7789 49.0095 35.2107 49.5314 34.9 50.8546C34.2902 53.4545 35.5275 55.3111 37.9009 55.3575C38.5937 55.3712 39.5496 56.1408 40.3424 57.3242C41.5514 59.1281 41.599 59.4676 41.0014 62.0148C40.4988 64.1566 40.5099 65.2599 41.0533 67.0327C41.8124 69.5087 42.3531 70.0749 43.9708 70.0875C45.3523 70.0981 50.7565 75.6416 51.63 77.9447C52.2321 79.5319 52.1923 79.7976 51.2734 80.3168C47.0341 82.7148 44.2461 85.4175 43.487 87.8645C43.1724 88.8782 43.5589 89.2372 46.4702 90.6384C48.8879 91.8023 50.223 92.8671 51.29 94.4823C54.8615 99.8898 55.9523 99.477 62.2526 90.3331C65.5831 85.4997 67.188 82.6162 67.7176 80.5161C68.1284 78.8851 71.1575 75.3669 72.151 75.3669C72.5115 75.3669 73.7919 74.8624 74.9966 74.2457C76.2007 73.6289 78.6509 72.9394 80.4411 72.7133C84.8435 72.1571 86.2914 70.9916 88.0186 66.6131C88.8075 64.6142 90.1133 61.8166 90.9211 60.3965C92.1462 58.2425 92.39 57.1461 92.39 53.7876C92.39 49.95 92.5006 49.5968 94.7396 46.2668C96.0322 44.3448 98.6445 40.941 100.545 38.7028C103.692 34.9969 104 34.4113 104 32.1472C104 28.5531 102.229 26.2247 99.1089 25.7165C97.6808 25.484 95.9731 24.6944 94.8303 23.7371C91.8233 21.2199 89.911 20.5215 84.7622 20.0586C81.0022 19.7207 79.6804 19.7861 78.7129 20.357C76.7563 21.512 76.6275 21.4477 76.811 19.4124C76.9481 17.8957 76.7182 17.3122 75.7186 16.6448C75.0225 16.1799 73.877 15.7993 73.1743 15.7993C72.4711 15.7993 70.0385 15.0376 67.7685 14.1071C64.2894 12.6807 63.6414 12.2184 63.6414 11.1614C63.6414 9.91685 60.1507 3.43347 59.1688 2.85466C58.1726 2.26742 56.5212 3.21629 55.4072 5.01597C54.3252 6.76504 54.1505 6.83779 51.0302 6.83779C48.5595 6.83779 47.556 7.07395 46.8462 7.82144C46.1098 8.5974 45.1865 8.79139 42.4758 8.74026L39.0393 8.67489L39.2156 5.92266C39.4235 2.68439 38.0872 -0.0240872 36.2938 0.000161571C35.6751 0.00859592 34.3228 0.749237 33.2884 1.64591ZM36.83 5.94269C36.6316 7.15987 36.0748 9.17726 35.5939 10.4261C34.7894 12.5131 34.7928 12.8457 35.6342 14.5278C36.1379 15.5352 36.9235 16.4956 37.3801 16.6628C39.4218 17.4097 36.8704 20.0165 34.0967 20.0165C32.8495 20.0165 32.7428 19.8562 33.0408 18.435C33.3183 17.1124 33.1967 16.8536 32.2999 16.8536C31.6371 16.8536 30.8951 17.5078 30.3572 18.5668C28.7467 21.7381 23.0556 28.0022 19.4233 30.6005C16.0769 32.9948 15.7844 33.1061 15.3294 32.1524C14.5665 30.5536 15.8723 28.2763 18.6057 26.4397C19.9513 25.5352 21.7188 23.6622 22.5365 22.2748C23.6544 20.377 24.7048 19.4271 26.7808 18.4371C30.0808 16.8636 31.5447 14.3359 31.5635 10.1799C31.574 7.79614 31.8582 7.11876 33.8607 4.70337C35.8073 2.35493 36.2225 2.07923 36.6686 2.83885C36.9561 3.3291 37.0291 4.72604 36.83 5.94269ZM28.7639 5.25635C29.5987 5.25635 29.7021 5.67332 29.5157 8.28744C29.2172 12.4793 27.9876 15.5078 26.2832 16.2479C23.6472 17.3934 22.73 16.7898 22.73 13.911C22.73 12.988 23.0346 12.6364 23.8357 12.6364C24.4438 12.6364 25.4622 12.1398 26.0991 11.5326C27.2457 10.4393 27.2789 8.95323 26.2301 5.57211C25.9885 4.79246 26.1284 4.64591 26.8576 4.91317C27.374 5.10189 28.2315 5.25635 28.7639 5.25635ZM60.7511 11.3723C60.295 12.327 59.9555 12.4851 59.1964 12.0977C58.3578 11.6701 58.3036 11.308 58.7978 9.4498L59.3711 7.29746L60.3525 8.72392C61.1226 9.84305 61.2083 10.415 60.7511 11.3723ZM55.9534 10.162C55.5155 10.5795 55.1661 10.5647 54.6873 10.1082C54.1737 9.61849 54.2666 9.308 55.102 8.72023C56.0446 8.05655 56.2016 8.0634 56.368 8.774C56.4725 9.22049 56.2857 9.84516 55.9534 10.162ZM51.5239 10.1325C52.4007 11.765 54.2893 13.1377 55.6775 13.152C56.3144 13.1583 57.262 13.6127 57.7828 14.1614C58.632 15.056 58.6486 15.3454 57.9437 16.9537C57.0547 18.9822 53.5755 22.0613 53.2438 21.1124C53.1277 20.7798 53.4185 19.5874 53.8901 18.4624C54.6204 16.7223 54.6337 16.3275 53.9797 15.8098C53.3743 15.3307 53.0348 15.4609 52.3825 16.4229C51.9264 17.0945 51.3779 18.3559 51.1629 19.2257C50.5348 21.7713 50.2849 21.8515 48.7093 20.0107C47.6627 18.7882 46.9307 18.3681 46.2684 18.61C45.4027 18.9274 45.4286 19.1361 46.583 21.0939C47.2757 22.2695 48.6302 23.6954 49.5922 24.2621C51.5377 25.4086 52.0314 26.8688 52.0314 31.4724C52.0314 34.0154 51.9153 34.3174 51.0639 33.9885C50.5315 33.7829 49.4125 33.3781 48.5761 33.0897C47.2155 32.62 47.0551 32.3074 47.0507 30.1124C47.0441 27.0418 44.3179 22.1251 42.6218 22.1251C41.1296 22.1251 41.2391 23.4171 42.9076 25.503C44.1808 27.0945 45.4867 32.1408 44.6253 32.1408C43.6197 32.1408 40.5762 30.5747 39.6446 29.5779C38.3382 28.1799 36.5514 28.0866 36.5514 29.4155C36.5514 30.8978 40.9245 33.5594 45.2274 34.6965C47.3526 35.2579 49.8974 36.1145 50.8815 36.5995C52.5577 37.426 52.6202 37.5546 51.87 38.6332C51.4294 39.2663 49.9123 40.3527 48.4992 41.047L45.929 42.3095L44.1427 40.3728C42.7064 38.8156 41.7262 38.3127 39.1393 37.8077C36.239 37.2415 35.7232 37.2816 33.9032 38.2183C32.5178 38.9316 31.4397 40.1081 30.4672 41.9684L29.0502 44.679L26.5812 43.5499C24.5146 42.6042 24.0845 42.1461 23.9413 40.7407C23.6571 37.9426 26.9626 32.8072 30.0166 31.3011L31.7178 30.4624L31.3579 32.2906C30.8918 34.6611 31.8062 37.0222 33.0977 36.7829C33.8944 36.6348 34.032 36.1387 33.8822 33.9442C33.7186 31.5436 33.8938 31.0644 35.6829 29.0228C37.8445 26.5562 38.4781 24.9289 38.0707 22.8947C37.7345 21.2184 40.7327 17.9079 42.587 17.9079C45.7791 17.9079 49.7348 13.2727 49.1278 10.2426C48.7839 8.52993 50.6178 8.44559 51.5239 10.1325ZM19.0767 11.3296C19.9878 11.8989 20.2886 12.4914 20.1122 13.3707C19.9756 14.0523 20.2758 15.3691 20.7789 16.2974C21.8106 18.1989 21.5607 20.1435 20.0403 22.0444L19.0513 23.2811L18.0583 20.803C17.5121 19.4398 16.3865 17.5784 15.5561 16.6664C14.0103 14.9685 12.5447 12.6485 12.872 12.4166C15.848 10.308 17.0925 10.0903 19.0767 11.3296ZM46.5028 11.6227C46.5028 12.7598 43.7175 15.7993 42.6754 15.7993C42.3481 15.7993 42.08 15.3391 42.08 14.7761C42.08 13.3544 40.9422 12.8257 40.1383 13.8736C38.8911 15.5004 37.6571 14.5731 37.6571 12.0091C37.6571 11.1725 37.9269 10.9996 38.9011 11.2115C39.5849 11.3602 40.6426 11.2837 41.2507 11.0418C41.8588 10.7998 43.2896 10.5853 44.4296 10.5647C46.1722 10.5336 46.5028 10.7023 46.5028 11.6227ZM63.365 14.745C63.553 15.0349 64.1893 15.2721 64.7798 15.2721C65.7069 15.2721 65.8528 15.6517 65.8528 18.0655V20.8588L63.9831 20.6511C62.0243 20.4329 60.8832 21.2874 61.8723 22.2305C62.1841 22.5278 63.5629 22.892 64.9362 23.0397C67.0614 23.2679 67.5341 23.5399 68.1102 24.8662C68.4822 25.7228 69.337 26.7676 70.0098 27.1883C71.0928 27.8646 71.1824 28.211 70.791 30.2088C70.0645 33.9163 69.133 35.2447 65.9115 37.1661C64.2258 38.1714 62.6988 38.9938 62.5186 38.9938C61.629 38.9938 62.3555 34.7608 63.4385 33.6327C64.8654 32.1466 66.4057 29.3333 66.4057 28.2136C66.4057 26.5183 64.3679 27.3839 63.365 29.5051C62.8166 30.6648 62.2189 31.6079 62.037 31.601C61.8551 31.5942 61.1624 30.4081 60.4979 28.9653C59.61 27.0391 58.9858 26.3422 58.1482 26.3422C56.702 26.3422 56.7158 26.8314 58.2406 29.6206C59.9992 32.8372 60.2253 38.1298 58.7033 40.4434C57.3234 42.5409 56.4543 42.6395 56.4543 40.6991C56.4543 39.8978 55.9567 38.3564 55.3486 37.2747C54.5088 35.7808 54.2428 34.3006 54.2428 31.1229C54.2428 28.8214 54.0012 26.3322 53.706 25.5916C53.2333 24.4065 53.3561 24.153 54.7294 23.4756C56.7517 22.4782 59.1423 19.8488 60.876 16.7144C62.2797 14.1767 62.7535 13.8019 63.365 14.745ZM71.7966 17.7582L73.5934 18.046L72.5585 19.6902C71.989 20.5942 71.3449 22.046 71.126 22.9158L70.7291 24.4972L69.7201 22.6327C69.1656 21.6069 68.5303 19.8488 68.3097 18.7255C67.9432 16.8641 68.0001 16.7181 68.9533 17.0771C69.5288 17.2932 70.8081 17.6 71.7966 17.7582ZM16.1139 22.4508C16.7619 24.6569 16.7326 24.7618 15.0176 26.397C13.4884 27.8551 13.1506 27.9774 12.4634 27.3222C11.7762 26.6669 11.8215 26.2911 12.8073 24.4777C13.908 22.4529 13.9965 20.5178 13.0948 18.1714C12.8073 17.4229 13.0898 17.5615 14.0689 18.6506C14.828 19.4946 15.7479 21.2041 16.1139 22.4508ZM35.7332 23.2131C36.3585 25.0908 33.796 28.4508 31.7388 28.4508C28.8473 28.4508 25.0116 31.5663 22.7891 35.7202C21.9438 37.2995 20.9735 38.0254 17.872 39.3954C13.9047 41.1482 12.2257 41.4993 12.2257 40.5768C12.2257 39.6042 16.3306 35.7075 20.6838 32.5483C23.0595 30.8235 26.4043 27.7118 28.1165 25.6327C31.1113 21.9959 31.3087 21.8594 33.3183 22.0423C34.7568 22.173 35.5082 22.5373 35.7332 23.2131ZM77.5137 23.541C78.8433 23.2094 78.8942 24.2958 77.6398 26.2289C76.5136 27.9648 75.2885 28.978 74.3165 28.978C73.7963 28.978 73.5928 28.0391 73.5928 25.6395C73.5928 23.803 73.7377 22.1625 73.9152 21.9933C74.0926 21.824 74.7378 22.1625 75.3487 22.745C75.9983 23.3644 76.8973 23.6949 77.5137 23.541ZM88.4564 22.9585C88.5736 23.0618 88.2574 23.7471 87.7526 24.4809C86.6403 26.1003 85.1763 26.29 85.5954 24.7608C85.8121 23.9711 85.6125 23.7065 84.8004 23.7065C82.851 23.7065 81.7187 25.5821 81.3765 29.3775C81.0194 33.329 80.7944 33.5446 75.6633 34.8535C72.4634 35.6696 71.5401 35.1234 72.5496 33.0117C72.9167 32.2426 73.6127 31.6126 74.0965 31.6116C76.832 31.6058 81.3329 26.3396 81.3329 23.1451C81.3329 22.0781 81.5076 22.0407 84.7882 22.396C86.6889 22.6021 88.3392 22.8551 88.4564 22.9585ZM93.2193 26.4065C93.2193 27.5373 92.9489 27.6764 90.455 27.8246L87.6907 27.9896L88.8915 26.92C89.5516 26.3317 90.2576 25.3533 90.4605 24.745C90.795 23.7392 90.9365 23.7075 92.024 24.396C92.6913 24.8188 93.2193 25.7065 93.2193 26.4065ZM11.0592 29.2563C11.9929 30.27 12.8305 31.9289 13.0583 33.2152C13.4011 35.1482 13.2745 35.5973 12.0631 36.7529C10.4366 38.3037 7.12779 38.8056 6.1249 37.6537C5.11041 36.4882 5.91316 35.3037 7.71768 35.3037C9.43486 35.3037 10.895 34.1271 10.3056 33.2183C10.1093 32.9157 9.59077 32.668 9.15235 32.668C8.10358 32.668 8.1268 31.6643 9.18497 31.2774C10.1215 30.9347 10.2918 29.7313 9.47301 29.2484C8.53204 28.6938 6.86739 29.9284 5.2348 32.3923C4.36682 33.7023 3.40761 34.6959 3.10354 34.6C2.19243 34.3127 2.12166 32.6506 2.9808 31.7065C3.42254 31.2204 3.96157 30.114 4.17884 29.2468C4.67199 27.2758 5.0988 27.0265 7.51423 27.2953C8.84109 27.4429 9.95897 28.0607 11.0592 29.2563ZM97.5039 27.7455C97.1241 27.892 96.5022 27.892 96.1218 27.7455C95.742 27.5995 96.0527 27.4798 96.8129 27.4798C97.573 27.4798 97.8843 27.5995 97.5039 27.7455ZM85.7469 28.9184C83.6394 30.007 83.2386 29.9711 83.735 28.7371C83.9379 28.2336 84.7506 27.9237 85.8679 27.9237H87.6736L85.7469 28.9184ZM101.789 32.1719C101.789 33.9142 101.606 34.2494 100.656 34.2494C99.9044 34.2494 99.2653 33.6733 98.7561 32.5362C98.0148 30.882 98.0396 30.8019 99.4738 30.2152C101.442 29.4097 101.789 29.7023 101.789 32.1719ZM94.9608 30.4355C95.3107 30.6485 95.6839 31.2658 95.7901 31.8072C95.9791 32.7697 95.3063 33.357 93.3575 33.931C92.8251 34.0881 92.39 34.5636 92.39 34.988C92.39 36.0665 94.3244 36.5367 95.7563 35.8061C96.6365 35.3564 97.3049 35.3485 98.2857 35.7745C99.4345 36.2737 99.5318 36.5077 98.9917 37.4708C98.4747 38.3912 98.0214 38.5351 96.4131 38.2863C95.34 38.1197 93.6361 37.4445 92.6272 36.7855C90.9747 35.7059 90.8741 35.4998 91.616 34.7186C92.7593 33.5135 92.9119 30.823 91.8371 30.823C91.381 30.823 90.7646 31.3522 90.4666 31.999C89.7258 33.6084 88.7129 33.8673 87.0991 32.8588C85.56 31.8973 86.0305 30.7919 88.1457 30.3991C90.2366 30.0112 94.2996 30.0328 94.9608 30.4355ZM88.3447 36.6427C90.5833 38.2494 92.9688 39.776 93.6461 40.0359C94.7037 40.4418 94.5826 40.513 92.787 40.542C91.637 40.5599 89.8026 40.931 88.7113 41.3659C86.3638 42.3011 83.123 42.387 80.9541 41.5715C79.5079 41.0275 79.4764 40.9558 80.5036 40.5541C81.1117 40.3164 82.6746 40.1055 83.9761 40.085C85.6109 40.0596 86.4484 39.7871 86.6829 39.2041C87.5365 37.0839 83.5371 36.8746 78.845 38.7945C73.7952 40.8604 71.3676 41.3121 68.2838 40.7597L65.5764 40.2747L67.9432 38.7623C69.8882 37.5204 70.9308 37.2415 73.7886 37.1993C76.5645 37.1588 77.9278 36.8129 80.5434 35.4861C82.3462 34.572 83.923 33.8008 84.0479 33.7729C84.1729 33.745 86.1062 35.0365 88.3447 36.6427ZM40.7526 40.8989C44.1383 42.4308 42.5991 43.4387 37.6831 42.9084C35.2605 42.6469 34.4179 42.7497 33.8761 43.3722C33.3161 44.0159 33.3205 44.2542 33.8982 44.5963C35.2743 45.4097 42.0518 45.3875 45.448 44.5578C49.8471 43.4829 49.82 43.4782 49.82 45.358C49.82 46.6184 50.035 46.9384 50.7875 46.7982C51.52 46.6622 51.766 46.0702 51.7998 44.3596C51.8318 42.7318 52.1978 41.7771 53.11 40.9426L54.3755 39.7845L54.0399 42.717C53.3566 48.6922 52.1658 50.0428 49.2798 48.1155C47.3531 46.8282 41.1722 46.8388 39.1006 48.1324C37.583 49.0802 37.5294 49.0776 36.4768 48.0006C35.8504 47.3591 34.7132 46.901 33.7484 46.901C31.7526 46.901 31.2058 45.862 32.1086 43.7839C33.7141 40.0876 36.7327 39.0802 40.7526 40.8989ZM64.9732 42.426C68.051 43.3164 73.39 43.4587 75.4659 42.7065C76.5352 42.3185 77.5021 42.4713 79.6356 43.3654C81.1626 44.0053 82.4181 44.7934 82.4253 45.1166C82.4496 46.2046 80.0569 48.6042 78.2169 49.3369C75.7413 50.3232 74.6986 50.2505 74.6986 49.0913C74.6986 48.5562 74.2369 47.7201 73.6719 47.2331C72.8365 46.5119 72.5341 46.4756 72.0454 47.037C71.6628 47.4761 71.6313 48.008 71.9575 48.5003C72.632 49.5167 72.6265 52.8082 71.9481 54.5103C71.4361 55.7939 71.2012 55.8625 67.308 55.8625C64.0782 55.8625 63.1356 55.6853 62.8713 55.0285C62.3405 53.7101 62.4428 53.523 64.0699 52.8366C66.9978 51.6005 68.8869 46.3738 66.4057 46.3738C65.6953 46.3738 65.3 46.7254 65.3 47.3569C65.3 48.4719 63.2959 51.1181 62.4517 51.1181C62.1205 51.1181 62.0426 50.4766 62.2593 49.5362C62.5379 48.3274 62.4047 47.8741 61.6948 47.6142C61.1602 47.4186 60.5581 47.5868 60.2767 48.0101C59.6006 49.0291 59.6492 53.3785 60.3569 55.1534C60.8395 56.3638 60.7726 56.7402 59.9749 57.2963C59.4425 57.6674 58.7934 57.971 58.5319 57.971C57.8254 57.971 56.6384 54.9584 55.9578 51.4376C55.4149 48.6332 55.468 48.1593 56.4996 46.5673C57.5307 44.9769 61.2531 41.6211 61.9707 41.6353C62.1293 41.6385 63.4805 41.9943 64.9732 42.426ZM93.4957 43.7381C92.808 44.9632 92.6963 44.9858 91.1732 44.2088C90.2554 43.7402 90.1808 43.533 90.795 43.1624C91.2163 42.9078 92.1291 42.6964 92.824 42.6917C93.917 42.6848 94.0077 42.8261 93.4957 43.7381ZM86.81 48.9231C87.662 50.435 87.3148 50.8593 85.8403 50.1071C84.3382 49.3406 83.934 47.8841 84.7147 46.048L85.361 44.5288L85.7386 46.1102C85.9464 46.98 86.4285 48.2457 86.81 48.9231ZM90.9282 47.9331C90.7159 48.3801 90.4334 50.7623 90.3002 53.2267C90.0509 57.8419 89.7197 58.4761 87.5525 58.4903C85.9641 58.5003 85.989 58.2067 87.7653 55.9858C89.6108 53.679 90.0381 50.4439 88.8545 47.7433C87.605 44.8915 87.7338 44.5963 89.6406 45.9405C90.7779 46.7423 91.1909 47.3807 90.9282 47.9331ZM47.8678 50.0375C48.319 50.7333 46.8478 51.387 42.4946 52.4249C37.651 53.5799 36.9251 53.3163 39.1377 51.2067C40.7166 49.7017 41.2175 49.5367 44.2162 49.5367C46.0462 49.5367 47.6893 49.7618 47.8678 50.0375ZM84.3034 51.7107L86.7536 53.3569L85.2869 55.3806C83.6692 57.6131 83.1556 57.7966 81.5883 56.7038C80.5555 55.9837 80.5644 55.9342 81.8973 54.8962C82.9826 54.0507 83.1269 53.6922 82.5901 53.1714C82.0499 52.6479 81.319 52.8008 78.9887 53.9247C75.2564 55.7254 74.2148 55.7544 74.557 54.0491C74.7621 53.0259 75.4283 52.5789 77.815 51.863C79.4653 51.368 80.9464 50.7607 81.1067 50.5135C81.5258 49.8672 81.6043 49.8962 84.3034 51.7107ZM54.0377 53.7539L54.6044 56.3896H52.3123C51.0518 56.3896 48.7043 56.7623 47.0955 57.2178C44.2433 58.0253 44.1377 58.0169 42.8656 56.8777C42.148 56.2352 41.6769 55.5304 41.819 55.3116C41.9606 55.0928 43.2592 54.6368 44.7044 54.2979C46.1496 53.9589 48.4517 53.116 49.82 52.4239C51.1883 51.7317 52.5699 51.155 52.89 51.1419C53.2096 51.1287 53.7265 52.3042 54.0377 53.7539ZM86.4468 60.6063C88.2043 60.6068 88.264 60.8551 87.1307 63.4418C85.7784 66.5272 84.4244 65.902 80.1475 60.2188L78.1335 57.542L81.5297 59.0738C83.3978 59.9167 85.6109 60.6063 86.4468 60.6063ZM73.6957 58.5166C76.026 59.1339 78.5686 61.708 78.5686 63.4502C78.5686 64.426 78.0157 64.7976 75.3896 65.5862C73.6415 66.1113 71.9619 66.6268 71.6578 66.7312C70.76 67.0401 69.834 66.2246 69.4846 64.8187C68.9997 62.8635 69.7831 62.0359 71.5229 62.6663C72.6397 63.0712 73.1157 62.999 73.6885 62.3374C74.1313 61.8256 74.2032 61.4086 73.8693 61.2852C67.9902 59.1086 67.8559 56.97 73.6957 58.5166ZM55.7322 60.2784C55.583 60.8941 55.1938 62.1092 54.8676 62.9789C54.5414 63.8487 54.1516 65.1624 54.0012 65.8978C53.7934 66.9146 53.0343 67.5145 50.8334 68.4012C47.2802 69.8324 46.1363 69.2367 48.2747 67.068C50.4088 64.903 52.027 62.0997 52.0292 60.563C52.032 58.7897 52.2465 58.6337 54.2909 58.9194C55.704 59.1176 55.9561 59.3553 55.7322 60.2784ZM66.9348 59.5098C67.2472 60.0665 67.3583 61.5488 67.1825 62.8045C66.5323 67.4444 68.9113 69.7502 73.2141 68.65C74.4868 68.3247 75.9629 67.8983 76.4953 67.7027C77.2782 67.4149 77.4628 67.6347 77.4623 68.853C77.4617 70.106 77.009 70.6015 74.766 71.8029L72.0703 73.2462L69.9291 71.884C68.7515 71.1344 66.7009 69.5361 65.3724 68.3316C62.6573 65.8704 58.9344 60.7054 59.4884 60.1677C60.1291 59.5462 63.3185 58.5799 64.866 58.5383C65.8103 58.513 66.5771 58.8735 66.9348 59.5098ZM49.82 59.9763C49.82 61.1629 47.1314 65.2009 45.2401 66.8551L43.822 68.096L43.2592 66.1513C42.4128 63.2299 43.9652 60.3943 46.865 59.5657C49.2887 58.8725 49.82 58.9463 49.82 59.9763ZM59.223 66.8814C60.1977 70.8514 59.6111 77.5356 58.0813 79.8967C57.4406 80.8846 56.8606 81.6927 56.7915 81.6927C56.723 81.6927 57.2725 79.9331 58.0139 77.7823C59.4878 73.5056 59.3562 70.9478 57.6783 71.2509C57.0397 71.3664 56.6776 72.0216 56.5682 73.2625C56.4786 74.2752 55.9926 76.2894 55.4879 77.7391C54.5939 80.3084 54.5629 80.3353 54.2489 78.7934C54.0416 77.7733 54.2655 76.6505 54.8797 75.6305C55.468 74.6542 55.9794 72.2341 56.2165 69.3047C56.8252 61.7792 57.7806 61.0085 59.223 66.8814ZM84.4482 67.4597C85.4483 67.4597 85.4002 67.9594 84.2879 69.1313C83.3049 70.1671 80.5163 70.4407 79.9441 69.5577C79.7522 69.2625 79.8822 68.193 80.2321 67.1808L80.869 65.3416L82.281 66.4007C83.0578 66.9832 84.033 67.4597 84.4482 67.4597ZM68.26 73.5198C70.3819 74.8456 69.2291 76.1112 66.2476 75.7296C63.0598 75.3221 61.9828 74.1276 61.9828 71.0011V68.3796L64.38 70.4866C65.6986 71.6458 67.4445 73.0106 68.26 73.5198ZM53.69 71.6458C53.69 73.6342 53.2549 73.8535 51.0584 72.9731C48.8685 72.0949 48.7983 71.5298 50.7875 70.7802C53.2532 69.8514 53.69 69.9816 53.69 71.6458ZM62.5357 77.5055C62.5357 77.8123 62.2643 79.1761 61.9331 80.5366C61.4748 82.4175 60.7201 83.5445 58.7857 85.2372C57.3864 86.4618 56.2005 87.4106 56.1513 87.3458C56.1021 87.281 56.2414 86.0416 56.4604 84.592C56.6798 83.1423 56.8927 82.253 56.933 82.6152C57.1807 84.8229 60.5896 81.6147 61.2271 78.5741C61.5439 77.0633 62.5357 76.2536 62.5357 77.5055ZM65.3641 80.3506C64.5022 82.5155 63.046 84.6558 63.7973 82.6526C63.9798 82.166 64.296 80.9204 64.5 79.8851C64.7035 78.8498 65.1916 78.0026 65.5847 78.0026C66.1354 78.0026 66.085 78.5398 65.3641 80.3506ZM54.0477 83.1086C53.8912 83.2578 53.4976 83.223 53.1725 83.0311C52.7606 82.7886 52.7877 82.3332 53.2615 81.5287L53.9421 80.3748L54.1372 81.6062C54.2445 82.2836 54.2041 82.9594 54.0477 83.1086ZM51.8357 84.971L53.9144 86.1402L52.121 86.4902C51.1347 86.6826 49.8587 87.2446 49.2854 87.739C48.1797 88.6932 46.4542 88.671 46.1142 87.699C45.924 87.1539 48.7994 83.8013 49.4573 83.8013C49.6221 83.8013 50.6924 84.3273 51.8357 84.971ZM62.2073 86.5688C61.1259 88.3801 56.8921 94.3442 56.6881 94.3442C56.5593 94.3442 56.4543 93.5097 56.4543 92.4902C56.4543 90.971 56.9209 90.2103 59.0411 88.273C61.5295 85.9995 63.0294 85.1924 62.2073 86.5688ZM53.6734 91.3131C53.659 93.6241 53.5556 93.9067 53.0448 93.0263C52.7087 92.4465 51.9319 91.4438 51.3193 90.7986L50.2048 89.6252L51.5327 89.1186C53.6247 88.321 53.6911 88.389 53.6734 91.3131Z" fill="#221E3A"/>
</svg>
