<svg width="46" height="46" viewBox="0 0 46 46" fill="none" xmlns="http://www.w3.org/2000/svg">
<rect width="46" height="46" rx="23" fill="#221E3A" fill-opacity="0.2"/>
<path d="M30.9754 31.9664C29.1495 29.5566 26.2565 28 23 28C19.7435 28 16.8505 29.5566 15.0246 31.9664M30.9754 31.9664C33.4447 29.7685 35 26.5659 35 23C35 16.3726 29.6274 11 23 11C16.3726 11 11 16.3726 11 23C11 26.5659 12.5553 29.7685 15.0246 31.9664M30.9754 31.9664C28.8553 33.8535 26.0616 35 23 35C19.9384 35 17.1447 33.8535 15.0246 31.9664M27 20C27 22.2091 25.2091 24 23 24C20.7909 24 19 22.2091 19 20C19 17.7909 20.7909 16 23 16C25.2091 16 27 17.7909 27 20Z" stroke="#221E3A" stroke-width="1.8" stroke-linecap="round" stroke-linejoin="round"/>
</svg>
